<mxfile host="app.diagrams.net" modified="2024-05-25T11:59:30.313Z" agent="Mozilla/5.0 (Windows NT 10.0; Win64; x64) AppleWebKit/537.36 (KHTML, like Gecko) Chrome/125.0.0.0 Safari/537.36" etag="eJB10thBJse0FjFqkpAT" version="24.4.8" type="device">
  <diagram id="R2lEEEUBdFMjLlhIrx00" name="Page-1">
    <mxGraphModel dx="7725" dy="2405" grid="1" gridSize="10" guides="1" tooltips="1" connect="1" arrows="1" fold="1" page="1" pageScale="1" pageWidth="850" pageHeight="1100" math="0" shadow="0" extFonts="Permanent Marker^https://fonts.googleapis.com/css?family=Permanent+Marker">
      <root>
        <mxCell id="0" />
        <mxCell id="1" parent="0" />
        <mxCell id="bjHw961es4BenDyh05qI-1" value="User" style="shape=table;startSize=30;container=1;collapsible=1;childLayout=tableLayout;fixedRows=1;rowLines=0;fontStyle=1;align=center;resizeLast=1;" parent="1" vertex="1">
          <mxGeometry x="-4020" y="-803" width="130" height="150" as="geometry" />
        </mxCell>
        <mxCell id="bjHw961es4BenDyh05qI-2" value="" style="shape=tableRow;horizontal=0;startSize=0;swimlaneHead=0;swimlaneBody=0;fillColor=none;collapsible=0;dropTarget=0;points=[[0,0.5],[1,0.5]];portConstraint=eastwest;strokeColor=inherit;top=0;left=0;right=0;bottom=1;" parent="bjHw961es4BenDyh05qI-1" vertex="1">
          <mxGeometry y="30" width="130" height="30" as="geometry" />
        </mxCell>
        <mxCell id="bjHw961es4BenDyh05qI-3" value="PK" style="shape=partialRectangle;overflow=hidden;connectable=0;fillColor=none;strokeColor=inherit;top=0;left=0;bottom=0;right=0;fontStyle=1;" parent="bjHw961es4BenDyh05qI-2" vertex="1">
          <mxGeometry width="30" height="30" as="geometry">
            <mxRectangle width="30" height="30" as="alternateBounds" />
          </mxGeometry>
        </mxCell>
        <mxCell id="bjHw961es4BenDyh05qI-4" value="user_id" style="shape=partialRectangle;overflow=hidden;connectable=0;fillColor=none;align=left;strokeColor=inherit;top=0;left=0;bottom=0;right=0;spacingLeft=6;fontStyle=5;" parent="bjHw961es4BenDyh05qI-2" vertex="1">
          <mxGeometry x="30" width="100" height="30" as="geometry">
            <mxRectangle width="100" height="30" as="alternateBounds" />
          </mxGeometry>
        </mxCell>
        <mxCell id="bjHw961es4BenDyh05qI-5" value="" style="shape=tableRow;horizontal=0;startSize=0;swimlaneHead=0;swimlaneBody=0;fillColor=none;collapsible=0;dropTarget=0;points=[[0,0.5],[1,0.5]];portConstraint=eastwest;strokeColor=inherit;top=0;left=0;right=0;bottom=0;" parent="bjHw961es4BenDyh05qI-1" vertex="1">
          <mxGeometry y="60" width="130" height="30" as="geometry" />
        </mxCell>
        <mxCell id="bjHw961es4BenDyh05qI-6" value="" style="shape=partialRectangle;overflow=hidden;connectable=0;fillColor=none;strokeColor=inherit;top=0;left=0;bottom=0;right=0;" parent="bjHw961es4BenDyh05qI-5" vertex="1">
          <mxGeometry width="30" height="30" as="geometry">
            <mxRectangle width="30" height="30" as="alternateBounds" />
          </mxGeometry>
        </mxCell>
        <mxCell id="bjHw961es4BenDyh05qI-7" value="username" style="shape=partialRectangle;overflow=hidden;connectable=0;fillColor=none;align=left;strokeColor=inherit;top=0;left=0;bottom=0;right=0;spacingLeft=6;" parent="bjHw961es4BenDyh05qI-5" vertex="1">
          <mxGeometry x="30" width="100" height="30" as="geometry">
            <mxRectangle width="100" height="30" as="alternateBounds" />
          </mxGeometry>
        </mxCell>
        <mxCell id="bjHw961es4BenDyh05qI-8" value="" style="shape=tableRow;horizontal=0;startSize=0;swimlaneHead=0;swimlaneBody=0;fillColor=none;collapsible=0;dropTarget=0;points=[[0,0.5],[1,0.5]];portConstraint=eastwest;strokeColor=inherit;top=0;left=0;right=0;bottom=0;" parent="bjHw961es4BenDyh05qI-1" vertex="1">
          <mxGeometry y="90" width="130" height="30" as="geometry" />
        </mxCell>
        <mxCell id="bjHw961es4BenDyh05qI-9" value="" style="shape=partialRectangle;overflow=hidden;connectable=0;fillColor=none;strokeColor=inherit;top=0;left=0;bottom=0;right=0;" parent="bjHw961es4BenDyh05qI-8" vertex="1">
          <mxGeometry width="30" height="30" as="geometry">
            <mxRectangle width="30" height="30" as="alternateBounds" />
          </mxGeometry>
        </mxCell>
        <mxCell id="bjHw961es4BenDyh05qI-10" value="password" style="shape=partialRectangle;overflow=hidden;connectable=0;fillColor=none;align=left;strokeColor=inherit;top=0;left=0;bottom=0;right=0;spacingLeft=6;" parent="bjHw961es4BenDyh05qI-8" vertex="1">
          <mxGeometry x="30" width="100" height="30" as="geometry">
            <mxRectangle width="100" height="30" as="alternateBounds" />
          </mxGeometry>
        </mxCell>
        <mxCell id="bjHw961es4BenDyh05qI-11" value="" style="shape=tableRow;horizontal=0;startSize=0;swimlaneHead=0;swimlaneBody=0;fillColor=none;collapsible=0;dropTarget=0;points=[[0,0.5],[1,0.5]];portConstraint=eastwest;strokeColor=inherit;top=0;left=0;right=0;bottom=0;" parent="bjHw961es4BenDyh05qI-1" vertex="1">
          <mxGeometry y="120" width="130" height="30" as="geometry" />
        </mxCell>
        <mxCell id="bjHw961es4BenDyh05qI-12" value="" style="shape=partialRectangle;overflow=hidden;connectable=0;fillColor=none;strokeColor=inherit;top=0;left=0;bottom=0;right=0;" parent="bjHw961es4BenDyh05qI-11" vertex="1">
          <mxGeometry width="30" height="30" as="geometry">
            <mxRectangle width="30" height="30" as="alternateBounds" />
          </mxGeometry>
        </mxCell>
        <mxCell id="bjHw961es4BenDyh05qI-13" value="" style="shape=partialRectangle;overflow=hidden;connectable=0;fillColor=none;align=left;strokeColor=inherit;top=0;left=0;bottom=0;right=0;spacingLeft=6;" parent="bjHw961es4BenDyh05qI-11" vertex="1">
          <mxGeometry x="30" width="100" height="30" as="geometry">
            <mxRectangle width="100" height="30" as="alternateBounds" />
          </mxGeometry>
        </mxCell>
        <mxCell id="bjHw961es4BenDyh05qI-18" value="image" style="shape=table;startSize=30;container=1;collapsible=1;childLayout=tableLayout;fixedRows=1;rowLines=0;fontStyle=1;align=center;resizeLast=1;" parent="1" vertex="1">
          <mxGeometry x="-3840" y="290" width="140" height="120" as="geometry" />
        </mxCell>
        <mxCell id="bjHw961es4BenDyh05qI-19" value="" style="shape=tableRow;horizontal=0;startSize=0;swimlaneHead=0;swimlaneBody=0;fillColor=none;collapsible=0;dropTarget=0;points=[[0,0.5],[1,0.5]];portConstraint=eastwest;strokeColor=inherit;top=0;left=0;right=0;bottom=1;" parent="bjHw961es4BenDyh05qI-18" vertex="1">
          <mxGeometry y="30" width="140" height="30" as="geometry" />
        </mxCell>
        <mxCell id="bjHw961es4BenDyh05qI-20" value="PK" style="shape=partialRectangle;overflow=hidden;connectable=0;fillColor=none;strokeColor=inherit;top=0;left=0;bottom=0;right=0;fontStyle=1;" parent="bjHw961es4BenDyh05qI-19" vertex="1">
          <mxGeometry width="30" height="30" as="geometry">
            <mxRectangle width="30" height="30" as="alternateBounds" />
          </mxGeometry>
        </mxCell>
        <mxCell id="bjHw961es4BenDyh05qI-21" value="image_id" style="shape=partialRectangle;overflow=hidden;connectable=0;fillColor=none;align=left;strokeColor=inherit;top=0;left=0;bottom=0;right=0;spacingLeft=6;fontStyle=5;" parent="bjHw961es4BenDyh05qI-19" vertex="1">
          <mxGeometry x="30" width="110" height="30" as="geometry">
            <mxRectangle width="110" height="30" as="alternateBounds" />
          </mxGeometry>
        </mxCell>
        <mxCell id="bjHw961es4BenDyh05qI-22" value="" style="shape=tableRow;horizontal=0;startSize=0;swimlaneHead=0;swimlaneBody=0;fillColor=none;collapsible=0;dropTarget=0;points=[[0,0.5],[1,0.5]];portConstraint=eastwest;strokeColor=inherit;top=0;left=0;right=0;bottom=0;" parent="bjHw961es4BenDyh05qI-18" vertex="1">
          <mxGeometry y="60" width="140" height="30" as="geometry" />
        </mxCell>
        <mxCell id="bjHw961es4BenDyh05qI-23" value="" style="shape=partialRectangle;overflow=hidden;connectable=0;fillColor=none;strokeColor=inherit;top=0;left=0;bottom=0;right=0;" parent="bjHw961es4BenDyh05qI-22" vertex="1">
          <mxGeometry width="30" height="30" as="geometry">
            <mxRectangle width="30" height="30" as="alternateBounds" />
          </mxGeometry>
        </mxCell>
        <mxCell id="bjHw961es4BenDyh05qI-24" value="image_url" style="shape=partialRectangle;overflow=hidden;connectable=0;fillColor=none;align=left;strokeColor=inherit;top=0;left=0;bottom=0;right=0;spacingLeft=6;" parent="bjHw961es4BenDyh05qI-22" vertex="1">
          <mxGeometry x="30" width="110" height="30" as="geometry">
            <mxRectangle width="110" height="30" as="alternateBounds" />
          </mxGeometry>
        </mxCell>
        <mxCell id="bjHw961es4BenDyh05qI-25" value="" style="shape=tableRow;horizontal=0;startSize=0;swimlaneHead=0;swimlaneBody=0;fillColor=none;collapsible=0;dropTarget=0;points=[[0,0.5],[1,0.5]];portConstraint=eastwest;strokeColor=inherit;top=0;left=0;right=0;bottom=0;" parent="bjHw961es4BenDyh05qI-18" vertex="1">
          <mxGeometry y="90" width="140" height="30" as="geometry" />
        </mxCell>
        <mxCell id="bjHw961es4BenDyh05qI-26" value="" style="shape=partialRectangle;overflow=hidden;connectable=0;fillColor=none;strokeColor=inherit;top=0;left=0;bottom=0;right=0;" parent="bjHw961es4BenDyh05qI-25" vertex="1">
          <mxGeometry width="30" height="30" as="geometry">
            <mxRectangle width="30" height="30" as="alternateBounds" />
          </mxGeometry>
        </mxCell>
        <mxCell id="bjHw961es4BenDyh05qI-27" value="description" style="shape=partialRectangle;overflow=hidden;connectable=0;fillColor=none;align=left;strokeColor=inherit;top=0;left=0;bottom=0;right=0;spacingLeft=6;" parent="bjHw961es4BenDyh05qI-25" vertex="1">
          <mxGeometry x="30" width="110" height="30" as="geometry">
            <mxRectangle width="110" height="30" as="alternateBounds" />
          </mxGeometry>
        </mxCell>
        <mxCell id="bjHw961es4BenDyh05qI-28" value="National_Cuisine" style="shape=table;startSize=30;container=1;collapsible=1;childLayout=tableLayout;fixedRows=1;rowLines=0;fontStyle=1;align=center;resizeLast=1;" parent="1" vertex="1">
          <mxGeometry x="-3490" y="-415" width="170" height="90" as="geometry" />
        </mxCell>
        <mxCell id="bjHw961es4BenDyh05qI-29" value="" style="shape=tableRow;horizontal=0;startSize=0;swimlaneHead=0;swimlaneBody=0;fillColor=none;collapsible=0;dropTarget=0;points=[[0,0.5],[1,0.5]];portConstraint=eastwest;strokeColor=inherit;top=0;left=0;right=0;bottom=1;" parent="bjHw961es4BenDyh05qI-28" vertex="1">
          <mxGeometry y="30" width="170" height="30" as="geometry" />
        </mxCell>
        <mxCell id="bjHw961es4BenDyh05qI-30" value="PK" style="shape=partialRectangle;overflow=hidden;connectable=0;fillColor=none;strokeColor=inherit;top=0;left=0;bottom=0;right=0;fontStyle=1;" parent="bjHw961es4BenDyh05qI-29" vertex="1">
          <mxGeometry width="30" height="30" as="geometry">
            <mxRectangle width="30" height="30" as="alternateBounds" />
          </mxGeometry>
        </mxCell>
        <mxCell id="bjHw961es4BenDyh05qI-31" value="national_cuisine_id" style="shape=partialRectangle;overflow=hidden;connectable=0;fillColor=none;align=left;strokeColor=inherit;top=0;left=0;bottom=0;right=0;spacingLeft=6;fontStyle=5;" parent="bjHw961es4BenDyh05qI-29" vertex="1">
          <mxGeometry x="30" width="140" height="30" as="geometry">
            <mxRectangle width="140" height="30" as="alternateBounds" />
          </mxGeometry>
        </mxCell>
        <mxCell id="bjHw961es4BenDyh05qI-32" value="" style="shape=tableRow;horizontal=0;startSize=0;swimlaneHead=0;swimlaneBody=0;fillColor=none;collapsible=0;dropTarget=0;points=[[0,0.5],[1,0.5]];portConstraint=eastwest;strokeColor=inherit;top=0;left=0;right=0;bottom=0;" parent="bjHw961es4BenDyh05qI-28" vertex="1">
          <mxGeometry y="60" width="170" height="30" as="geometry" />
        </mxCell>
        <mxCell id="bjHw961es4BenDyh05qI-33" value="" style="shape=partialRectangle;overflow=hidden;connectable=0;fillColor=none;strokeColor=inherit;top=0;left=0;bottom=0;right=0;" parent="bjHw961es4BenDyh05qI-32" vertex="1">
          <mxGeometry width="30" height="30" as="geometry">
            <mxRectangle width="30" height="30" as="alternateBounds" />
          </mxGeometry>
        </mxCell>
        <mxCell id="bjHw961es4BenDyh05qI-34" value="country_name" style="shape=partialRectangle;overflow=hidden;connectable=0;fillColor=none;align=left;strokeColor=inherit;top=0;left=0;bottom=0;right=0;spacingLeft=6;" parent="bjHw961es4BenDyh05qI-32" vertex="1">
          <mxGeometry x="30" width="140" height="30" as="geometry">
            <mxRectangle width="140" height="30" as="alternateBounds" />
          </mxGeometry>
        </mxCell>
        <mxCell id="bjHw961es4BenDyh05qI-35" value="Food_Group" style="shape=table;startSize=30;container=1;collapsible=1;childLayout=tableLayout;fixedRows=1;rowLines=0;fontStyle=1;align=center;resizeLast=1;" parent="1" vertex="1">
          <mxGeometry x="-4140" y="600" width="320" height="150" as="geometry" />
        </mxCell>
        <mxCell id="bjHw961es4BenDyh05qI-39" value="" style="shape=tableRow;horizontal=0;startSize=0;swimlaneHead=0;swimlaneBody=0;fillColor=none;collapsible=0;dropTarget=0;points=[[0,0.5],[1,0.5]];portConstraint=eastwest;strokeColor=inherit;top=0;left=0;right=0;bottom=1;" parent="bjHw961es4BenDyh05qI-35" vertex="1">
          <mxGeometry y="30" width="320" height="30" as="geometry" />
        </mxCell>
        <mxCell id="bjHw961es4BenDyh05qI-40" value="PK" style="shape=partialRectangle;overflow=hidden;connectable=0;fillColor=none;strokeColor=inherit;top=0;left=0;bottom=0;right=0;fontStyle=1;" parent="bjHw961es4BenDyh05qI-39" vertex="1">
          <mxGeometry width="30" height="30" as="geometry">
            <mxRectangle width="30" height="30" as="alternateBounds" />
          </mxGeometry>
        </mxCell>
        <mxCell id="bjHw961es4BenDyh05qI-41" value="food_group_id" style="shape=partialRectangle;overflow=hidden;connectable=0;fillColor=none;align=left;strokeColor=inherit;top=0;left=0;bottom=0;right=0;spacingLeft=6;fontStyle=5;" parent="bjHw961es4BenDyh05qI-39" vertex="1">
          <mxGeometry x="30" width="290" height="30" as="geometry">
            <mxRectangle width="290" height="30" as="alternateBounds" />
          </mxGeometry>
        </mxCell>
        <mxCell id="bjHw961es4BenDyh05qI-42" value="" style="shape=tableRow;horizontal=0;startSize=0;swimlaneHead=0;swimlaneBody=0;fillColor=none;collapsible=0;dropTarget=0;points=[[0,0.5],[1,0.5]];portConstraint=eastwest;strokeColor=inherit;top=0;left=0;right=0;bottom=0;" parent="bjHw961es4BenDyh05qI-35" vertex="1">
          <mxGeometry y="60" width="320" height="30" as="geometry" />
        </mxCell>
        <mxCell id="bjHw961es4BenDyh05qI-43" value="" style="shape=partialRectangle;overflow=hidden;connectable=0;fillColor=none;strokeColor=inherit;top=0;left=0;bottom=0;right=0;" parent="bjHw961es4BenDyh05qI-42" vertex="1">
          <mxGeometry width="30" height="30" as="geometry">
            <mxRectangle width="30" height="30" as="alternateBounds" />
          </mxGeometry>
        </mxCell>
        <mxCell id="bjHw961es4BenDyh05qI-44" value="name" style="shape=partialRectangle;overflow=hidden;connectable=0;fillColor=none;align=left;strokeColor=inherit;top=0;left=0;bottom=0;right=0;spacingLeft=6;" parent="bjHw961es4BenDyh05qI-42" vertex="1">
          <mxGeometry x="30" width="290" height="30" as="geometry">
            <mxRectangle width="290" height="30" as="alternateBounds" />
          </mxGeometry>
        </mxCell>
        <mxCell id="bjHw961es4BenDyh05qI-45" value="" style="shape=tableRow;horizontal=0;startSize=0;swimlaneHead=0;swimlaneBody=0;fillColor=none;collapsible=0;dropTarget=0;points=[[0,0.5],[1,0.5]];portConstraint=eastwest;strokeColor=inherit;top=0;left=0;right=0;bottom=0;" parent="bjHw961es4BenDyh05qI-35" vertex="1">
          <mxGeometry y="90" width="320" height="30" as="geometry" />
        </mxCell>
        <mxCell id="bjHw961es4BenDyh05qI-46" value="" style="shape=partialRectangle;overflow=hidden;connectable=0;fillColor=none;strokeColor=inherit;top=0;left=0;bottom=0;right=0;" parent="bjHw961es4BenDyh05qI-45" vertex="1">
          <mxGeometry width="30" height="30" as="geometry">
            <mxRectangle width="30" height="30" as="alternateBounds" />
          </mxGeometry>
        </mxCell>
        <mxCell id="bjHw961es4BenDyh05qI-47" value="description" style="shape=partialRectangle;overflow=hidden;connectable=0;fillColor=none;align=left;strokeColor=inherit;top=0;left=0;bottom=0;right=0;spacingLeft=6;" parent="bjHw961es4BenDyh05qI-45" vertex="1">
          <mxGeometry x="30" width="290" height="30" as="geometry">
            <mxRectangle width="290" height="30" as="alternateBounds" />
          </mxGeometry>
        </mxCell>
        <mxCell id="bjHw961es4BenDyh05qI-48" value="" style="shape=tableRow;horizontal=0;startSize=0;swimlaneHead=0;swimlaneBody=0;fillColor=none;collapsible=0;dropTarget=0;points=[[0,0.5],[1,0.5]];portConstraint=eastwest;strokeColor=inherit;top=0;left=0;right=0;bottom=0;" parent="bjHw961es4BenDyh05qI-35" vertex="1">
          <mxGeometry y="120" width="320" height="30" as="geometry" />
        </mxCell>
        <mxCell id="bjHw961es4BenDyh05qI-49" value="" style="shape=partialRectangle;overflow=hidden;connectable=0;fillColor=none;strokeColor=inherit;top=0;left=0;bottom=0;right=0;" parent="bjHw961es4BenDyh05qI-48" vertex="1">
          <mxGeometry width="30" height="30" as="geometry">
            <mxRectangle width="30" height="30" as="alternateBounds" />
          </mxGeometry>
        </mxCell>
        <mxCell id="bjHw961es4BenDyh05qI-50" value="characterization_for_recipe" style="shape=partialRectangle;overflow=hidden;connectable=0;fillColor=none;align=left;strokeColor=inherit;top=0;left=0;bottom=0;right=0;spacingLeft=6;" parent="bjHw961es4BenDyh05qI-48" vertex="1">
          <mxGeometry x="30" width="290" height="30" as="geometry">
            <mxRectangle width="290" height="30" as="alternateBounds" />
          </mxGeometry>
        </mxCell>
        <mxCell id="bjHw961es4BenDyh05qI-66" value="Ingredient" style="shape=table;startSize=30;container=1;collapsible=1;childLayout=tableLayout;fixedRows=1;rowLines=0;fontStyle=1;align=center;resizeLast=1;" parent="1" vertex="1">
          <mxGeometry x="-4420" y="190" width="320" height="120" as="geometry" />
        </mxCell>
        <mxCell id="bjHw961es4BenDyh05qI-73" value="" style="shape=tableRow;horizontal=0;startSize=0;swimlaneHead=0;swimlaneBody=0;fillColor=none;collapsible=0;dropTarget=0;points=[[0,0.5],[1,0.5]];portConstraint=eastwest;strokeColor=inherit;top=0;left=0;right=0;bottom=1;" parent="bjHw961es4BenDyh05qI-66" vertex="1">
          <mxGeometry y="30" width="320" height="30" as="geometry" />
        </mxCell>
        <mxCell id="bjHw961es4BenDyh05qI-74" value="PK" style="shape=partialRectangle;overflow=hidden;connectable=0;fillColor=none;strokeColor=inherit;top=0;left=0;bottom=0;right=0;fontStyle=1;" parent="bjHw961es4BenDyh05qI-73" vertex="1">
          <mxGeometry width="30" height="30" as="geometry">
            <mxRectangle width="30" height="30" as="alternateBounds" />
          </mxGeometry>
        </mxCell>
        <mxCell id="bjHw961es4BenDyh05qI-75" value="ingredient_id" style="shape=partialRectangle;overflow=hidden;connectable=0;fillColor=none;align=left;strokeColor=inherit;top=0;left=0;bottom=0;right=0;spacingLeft=6;fontStyle=5;" parent="bjHw961es4BenDyh05qI-73" vertex="1">
          <mxGeometry x="30" width="290" height="30" as="geometry">
            <mxRectangle width="290" height="30" as="alternateBounds" />
          </mxGeometry>
        </mxCell>
        <mxCell id="bjHw961es4BenDyh05qI-76" value="" style="shape=tableRow;horizontal=0;startSize=0;swimlaneHead=0;swimlaneBody=0;fillColor=none;collapsible=0;dropTarget=0;points=[[0,0.5],[1,0.5]];portConstraint=eastwest;strokeColor=inherit;top=0;left=0;right=0;bottom=0;" parent="bjHw961es4BenDyh05qI-66" vertex="1">
          <mxGeometry y="60" width="320" height="30" as="geometry" />
        </mxCell>
        <mxCell id="bjHw961es4BenDyh05qI-77" value="" style="shape=partialRectangle;overflow=hidden;connectable=0;fillColor=none;strokeColor=inherit;top=0;left=0;bottom=0;right=0;" parent="bjHw961es4BenDyh05qI-76" vertex="1">
          <mxGeometry width="30" height="30" as="geometry">
            <mxRectangle width="30" height="30" as="alternateBounds" />
          </mxGeometry>
        </mxCell>
        <mxCell id="bjHw961es4BenDyh05qI-78" value="name" style="shape=partialRectangle;overflow=hidden;connectable=0;fillColor=none;align=left;strokeColor=inherit;top=0;left=0;bottom=0;right=0;spacingLeft=6;" parent="bjHw961es4BenDyh05qI-76" vertex="1">
          <mxGeometry x="30" width="290" height="30" as="geometry">
            <mxRectangle width="290" height="30" as="alternateBounds" />
          </mxGeometry>
        </mxCell>
        <mxCell id="bjHw961es4BenDyh05qI-79" value="" style="shape=tableRow;horizontal=0;startSize=0;swimlaneHead=0;swimlaneBody=0;fillColor=none;collapsible=0;dropTarget=0;points=[[0,0.5],[1,0.5]];portConstraint=eastwest;strokeColor=inherit;top=0;left=0;right=0;bottom=0;" parent="bjHw961es4BenDyh05qI-66" vertex="1">
          <mxGeometry y="90" width="320" height="30" as="geometry" />
        </mxCell>
        <mxCell id="bjHw961es4BenDyh05qI-80" value="" style="shape=partialRectangle;overflow=hidden;connectable=0;fillColor=none;strokeColor=inherit;top=0;left=0;bottom=0;right=0;" parent="bjHw961es4BenDyh05qI-79" vertex="1">
          <mxGeometry width="30" height="30" as="geometry">
            <mxRectangle width="30" height="30" as="alternateBounds" />
          </mxGeometry>
        </mxCell>
        <mxCell id="bjHw961es4BenDyh05qI-81" value="calories_per_unit" style="shape=partialRectangle;overflow=hidden;connectable=0;fillColor=none;align=left;strokeColor=inherit;top=0;left=0;bottom=0;right=0;spacingLeft=6;" parent="bjHw961es4BenDyh05qI-79" vertex="1">
          <mxGeometry x="30" width="290" height="30" as="geometry">
            <mxRectangle width="290" height="30" as="alternateBounds" />
          </mxGeometry>
        </mxCell>
        <mxCell id="bjHw961es4BenDyh05qI-112" value="Recipe" style="shape=table;startSize=30;container=1;collapsible=1;childLayout=tableLayout;fixedRows=1;rowLines=0;fontStyle=1;align=center;resizeLast=1;" parent="1" vertex="1">
          <mxGeometry x="-3110" y="-80" width="320" height="390" as="geometry" />
        </mxCell>
        <mxCell id="bjHw961es4BenDyh05qI-119" value="" style="shape=tableRow;horizontal=0;startSize=0;swimlaneHead=0;swimlaneBody=0;fillColor=none;collapsible=0;dropTarget=0;points=[[0,0.5],[1,0.5]];portConstraint=eastwest;strokeColor=inherit;top=0;left=0;right=0;bottom=1;" parent="bjHw961es4BenDyh05qI-112" vertex="1">
          <mxGeometry y="30" width="320" height="30" as="geometry" />
        </mxCell>
        <mxCell id="bjHw961es4BenDyh05qI-120" value="PK" style="shape=partialRectangle;overflow=hidden;connectable=0;fillColor=none;strokeColor=inherit;top=0;left=0;bottom=0;right=0;fontStyle=1;" parent="bjHw961es4BenDyh05qI-119" vertex="1">
          <mxGeometry width="30" height="30" as="geometry">
            <mxRectangle width="30" height="30" as="alternateBounds" />
          </mxGeometry>
        </mxCell>
        <mxCell id="bjHw961es4BenDyh05qI-121" value="recipe_id" style="shape=partialRectangle;overflow=hidden;connectable=0;fillColor=none;align=left;strokeColor=inherit;top=0;left=0;bottom=0;right=0;spacingLeft=6;fontStyle=5;" parent="bjHw961es4BenDyh05qI-119" vertex="1">
          <mxGeometry x="30" width="290" height="30" as="geometry">
            <mxRectangle width="290" height="30" as="alternateBounds" />
          </mxGeometry>
        </mxCell>
        <mxCell id="bjHw961es4BenDyh05qI-122" value="" style="shape=tableRow;horizontal=0;startSize=0;swimlaneHead=0;swimlaneBody=0;fillColor=none;collapsible=0;dropTarget=0;points=[[0,0.5],[1,0.5]];portConstraint=eastwest;strokeColor=inherit;top=0;left=0;right=0;bottom=0;" parent="bjHw961es4BenDyh05qI-112" vertex="1">
          <mxGeometry y="60" width="320" height="30" as="geometry" />
        </mxCell>
        <mxCell id="bjHw961es4BenDyh05qI-123" value="" style="shape=partialRectangle;overflow=hidden;connectable=0;fillColor=none;strokeColor=inherit;top=0;left=0;bottom=0;right=0;" parent="bjHw961es4BenDyh05qI-122" vertex="1">
          <mxGeometry width="30" height="30" as="geometry">
            <mxRectangle width="30" height="30" as="alternateBounds" />
          </mxGeometry>
        </mxCell>
        <mxCell id="bjHw961es4BenDyh05qI-124" value="recipe_type" style="shape=partialRectangle;overflow=hidden;connectable=0;fillColor=none;align=left;strokeColor=inherit;top=0;left=0;bottom=0;right=0;spacingLeft=6;" parent="bjHw961es4BenDyh05qI-122" vertex="1">
          <mxGeometry x="30" width="290" height="30" as="geometry">
            <mxRectangle width="290" height="30" as="alternateBounds" />
          </mxGeometry>
        </mxCell>
        <mxCell id="bjHw961es4BenDyh05qI-125" value="" style="shape=tableRow;horizontal=0;startSize=0;swimlaneHead=0;swimlaneBody=0;fillColor=none;collapsible=0;dropTarget=0;points=[[0,0.5],[1,0.5]];portConstraint=eastwest;strokeColor=inherit;top=0;left=0;right=0;bottom=0;" parent="bjHw961es4BenDyh05qI-112" vertex="1">
          <mxGeometry y="90" width="320" height="30" as="geometry" />
        </mxCell>
        <mxCell id="bjHw961es4BenDyh05qI-126" value="" style="shape=partialRectangle;overflow=hidden;connectable=0;fillColor=none;strokeColor=inherit;top=0;left=0;bottom=0;right=0;" parent="bjHw961es4BenDyh05qI-125" vertex="1">
          <mxGeometry width="30" height="30" as="geometry">
            <mxRectangle width="30" height="30" as="alternateBounds" />
          </mxGeometry>
        </mxCell>
        <mxCell id="bjHw961es4BenDyh05qI-127" value="active" style="shape=partialRectangle;overflow=hidden;connectable=0;fillColor=none;align=left;strokeColor=inherit;top=0;left=0;bottom=0;right=0;spacingLeft=6;" parent="bjHw961es4BenDyh05qI-125" vertex="1">
          <mxGeometry x="30" width="290" height="30" as="geometry">
            <mxRectangle width="290" height="30" as="alternateBounds" />
          </mxGeometry>
        </mxCell>
        <mxCell id="bjHw961es4BenDyh05qI-128" value="" style="shape=tableRow;horizontal=0;startSize=0;swimlaneHead=0;swimlaneBody=0;fillColor=none;collapsible=0;dropTarget=0;points=[[0,0.5],[1,0.5]];portConstraint=eastwest;strokeColor=inherit;top=0;left=0;right=0;bottom=0;" parent="bjHw961es4BenDyh05qI-112" vertex="1">
          <mxGeometry y="120" width="320" height="30" as="geometry" />
        </mxCell>
        <mxCell id="bjHw961es4BenDyh05qI-129" value="" style="shape=partialRectangle;overflow=hidden;connectable=0;fillColor=none;strokeColor=inherit;top=0;left=0;bottom=0;right=0;" parent="bjHw961es4BenDyh05qI-128" vertex="1">
          <mxGeometry width="30" height="30" as="geometry">
            <mxRectangle width="30" height="30" as="alternateBounds" />
          </mxGeometry>
        </mxCell>
        <mxCell id="bjHw961es4BenDyh05qI-130" value="name" style="shape=partialRectangle;overflow=hidden;connectable=0;fillColor=none;align=left;strokeColor=inherit;top=0;left=0;bottom=0;right=0;spacingLeft=6;" parent="bjHw961es4BenDyh05qI-128" vertex="1">
          <mxGeometry x="30" width="290" height="30" as="geometry">
            <mxRectangle width="290" height="30" as="alternateBounds" />
          </mxGeometry>
        </mxCell>
        <mxCell id="bjHw961es4BenDyh05qI-131" value="" style="shape=tableRow;horizontal=0;startSize=0;swimlaneHead=0;swimlaneBody=0;fillColor=none;collapsible=0;dropTarget=0;points=[[0,0.5],[1,0.5]];portConstraint=eastwest;strokeColor=inherit;top=0;left=0;right=0;bottom=0;" parent="bjHw961es4BenDyh05qI-112" vertex="1">
          <mxGeometry y="150" width="320" height="30" as="geometry" />
        </mxCell>
        <mxCell id="bjHw961es4BenDyh05qI-132" value="" style="shape=partialRectangle;overflow=hidden;connectable=0;fillColor=none;strokeColor=inherit;top=0;left=0;bottom=0;right=0;" parent="bjHw961es4BenDyh05qI-131" vertex="1">
          <mxGeometry width="30" height="30" as="geometry">
            <mxRectangle width="30" height="30" as="alternateBounds" />
          </mxGeometry>
        </mxCell>
        <mxCell id="bjHw961es4BenDyh05qI-133" value="difficulty_level" style="shape=partialRectangle;overflow=hidden;connectable=0;fillColor=none;align=left;strokeColor=inherit;top=0;left=0;bottom=0;right=0;spacingLeft=6;" parent="bjHw961es4BenDyh05qI-131" vertex="1">
          <mxGeometry x="30" width="290" height="30" as="geometry">
            <mxRectangle width="290" height="30" as="alternateBounds" />
          </mxGeometry>
        </mxCell>
        <mxCell id="bjHw961es4BenDyh05qI-134" value="" style="shape=tableRow;horizontal=0;startSize=0;swimlaneHead=0;swimlaneBody=0;fillColor=none;collapsible=0;dropTarget=0;points=[[0,0.5],[1,0.5]];portConstraint=eastwest;strokeColor=inherit;top=0;left=0;right=0;bottom=0;" parent="bjHw961es4BenDyh05qI-112" vertex="1">
          <mxGeometry y="180" width="320" height="30" as="geometry" />
        </mxCell>
        <mxCell id="bjHw961es4BenDyh05qI-135" value="" style="shape=partialRectangle;overflow=hidden;connectable=0;fillColor=none;strokeColor=inherit;top=0;left=0;bottom=0;right=0;" parent="bjHw961es4BenDyh05qI-134" vertex="1">
          <mxGeometry width="30" height="30" as="geometry">
            <mxRectangle width="30" height="30" as="alternateBounds" />
          </mxGeometry>
        </mxCell>
        <mxCell id="bjHw961es4BenDyh05qI-136" value="description" style="shape=partialRectangle;overflow=hidden;connectable=0;fillColor=none;align=left;strokeColor=inherit;top=0;left=0;bottom=0;right=0;spacingLeft=6;" parent="bjHw961es4BenDyh05qI-134" vertex="1">
          <mxGeometry x="30" width="290" height="30" as="geometry">
            <mxRectangle width="290" height="30" as="alternateBounds" />
          </mxGeometry>
        </mxCell>
        <mxCell id="bjHw961es4BenDyh05qI-137" value="" style="shape=tableRow;horizontal=0;startSize=0;swimlaneHead=0;swimlaneBody=0;fillColor=none;collapsible=0;dropTarget=0;points=[[0,0.5],[1,0.5]];portConstraint=eastwest;strokeColor=inherit;top=0;left=0;right=0;bottom=0;" parent="bjHw961es4BenDyh05qI-112" vertex="1">
          <mxGeometry y="210" width="320" height="30" as="geometry" />
        </mxCell>
        <mxCell id="bjHw961es4BenDyh05qI-138" value="" style="shape=partialRectangle;overflow=hidden;connectable=0;fillColor=none;strokeColor=inherit;top=0;left=0;bottom=0;right=0;" parent="bjHw961es4BenDyh05qI-137" vertex="1">
          <mxGeometry width="30" height="30" as="geometry">
            <mxRectangle width="30" height="30" as="alternateBounds" />
          </mxGeometry>
        </mxCell>
        <mxCell id="bjHw961es4BenDyh05qI-139" value="tip1" style="shape=partialRectangle;overflow=hidden;connectable=0;fillColor=none;align=left;strokeColor=inherit;top=0;left=0;bottom=0;right=0;spacingLeft=6;" parent="bjHw961es4BenDyh05qI-137" vertex="1">
          <mxGeometry x="30" width="290" height="30" as="geometry">
            <mxRectangle width="290" height="30" as="alternateBounds" />
          </mxGeometry>
        </mxCell>
        <mxCell id="bjHw961es4BenDyh05qI-140" value="" style="shape=tableRow;horizontal=0;startSize=0;swimlaneHead=0;swimlaneBody=0;fillColor=none;collapsible=0;dropTarget=0;points=[[0,0.5],[1,0.5]];portConstraint=eastwest;strokeColor=inherit;top=0;left=0;right=0;bottom=0;" parent="bjHw961es4BenDyh05qI-112" vertex="1">
          <mxGeometry y="240" width="320" height="30" as="geometry" />
        </mxCell>
        <mxCell id="bjHw961es4BenDyh05qI-141" value="" style="shape=partialRectangle;overflow=hidden;connectable=0;fillColor=none;strokeColor=inherit;top=0;left=0;bottom=0;right=0;" parent="bjHw961es4BenDyh05qI-140" vertex="1">
          <mxGeometry width="30" height="30" as="geometry">
            <mxRectangle width="30" height="30" as="alternateBounds" />
          </mxGeometry>
        </mxCell>
        <mxCell id="bjHw961es4BenDyh05qI-142" value="tip2" style="shape=partialRectangle;overflow=hidden;connectable=0;fillColor=none;align=left;strokeColor=inherit;top=0;left=0;bottom=0;right=0;spacingLeft=6;" parent="bjHw961es4BenDyh05qI-140" vertex="1">
          <mxGeometry x="30" width="290" height="30" as="geometry">
            <mxRectangle width="290" height="30" as="alternateBounds" />
          </mxGeometry>
        </mxCell>
        <mxCell id="bjHw961es4BenDyh05qI-143" value="" style="shape=tableRow;horizontal=0;startSize=0;swimlaneHead=0;swimlaneBody=0;fillColor=none;collapsible=0;dropTarget=0;points=[[0,0.5],[1,0.5]];portConstraint=eastwest;strokeColor=inherit;top=0;left=0;right=0;bottom=0;" parent="bjHw961es4BenDyh05qI-112" vertex="1">
          <mxGeometry y="270" width="320" height="30" as="geometry" />
        </mxCell>
        <mxCell id="bjHw961es4BenDyh05qI-144" value="" style="shape=partialRectangle;overflow=hidden;connectable=0;fillColor=none;strokeColor=inherit;top=0;left=0;bottom=0;right=0;" parent="bjHw961es4BenDyh05qI-143" vertex="1">
          <mxGeometry width="30" height="30" as="geometry">
            <mxRectangle width="30" height="30" as="alternateBounds" />
          </mxGeometry>
        </mxCell>
        <mxCell id="bjHw961es4BenDyh05qI-145" value="tip3" style="shape=partialRectangle;overflow=hidden;connectable=0;fillColor=none;align=left;strokeColor=inherit;top=0;left=0;bottom=0;right=0;spacingLeft=6;" parent="bjHw961es4BenDyh05qI-143" vertex="1">
          <mxGeometry x="30" width="290" height="30" as="geometry">
            <mxRectangle width="290" height="30" as="alternateBounds" />
          </mxGeometry>
        </mxCell>
        <mxCell id="bjHw961es4BenDyh05qI-146" value="" style="shape=tableRow;horizontal=0;startSize=0;swimlaneHead=0;swimlaneBody=0;fillColor=none;collapsible=0;dropTarget=0;points=[[0,0.5],[1,0.5]];portConstraint=eastwest;strokeColor=inherit;top=0;left=0;right=0;bottom=0;" parent="bjHw961es4BenDyh05qI-112" vertex="1">
          <mxGeometry y="300" width="320" height="30" as="geometry" />
        </mxCell>
        <mxCell id="bjHw961es4BenDyh05qI-147" value="" style="shape=partialRectangle;overflow=hidden;connectable=0;fillColor=none;strokeColor=inherit;top=0;left=0;bottom=0;right=0;" parent="bjHw961es4BenDyh05qI-146" vertex="1">
          <mxGeometry width="30" height="30" as="geometry">
            <mxRectangle width="30" height="30" as="alternateBounds" />
          </mxGeometry>
        </mxCell>
        <mxCell id="bjHw961es4BenDyh05qI-148" value="cooking_time" style="shape=partialRectangle;overflow=hidden;connectable=0;fillColor=none;align=left;strokeColor=inherit;top=0;left=0;bottom=0;right=0;spacingLeft=6;" parent="bjHw961es4BenDyh05qI-146" vertex="1">
          <mxGeometry x="30" width="290" height="30" as="geometry">
            <mxRectangle width="290" height="30" as="alternateBounds" />
          </mxGeometry>
        </mxCell>
        <mxCell id="bjHw961es4BenDyh05qI-149" value="" style="shape=tableRow;horizontal=0;startSize=0;swimlaneHead=0;swimlaneBody=0;fillColor=none;collapsible=0;dropTarget=0;points=[[0,0.5],[1,0.5]];portConstraint=eastwest;strokeColor=inherit;top=0;left=0;right=0;bottom=0;" parent="bjHw961es4BenDyh05qI-112" vertex="1">
          <mxGeometry y="330" width="320" height="30" as="geometry" />
        </mxCell>
        <mxCell id="bjHw961es4BenDyh05qI-150" value="" style="shape=partialRectangle;overflow=hidden;connectable=0;fillColor=none;strokeColor=inherit;top=0;left=0;bottom=0;right=0;" parent="bjHw961es4BenDyh05qI-149" vertex="1">
          <mxGeometry width="30" height="30" as="geometry">
            <mxRectangle width="30" height="30" as="alternateBounds" />
          </mxGeometry>
        </mxCell>
        <mxCell id="bjHw961es4BenDyh05qI-151" value="prep_time" style="shape=partialRectangle;overflow=hidden;connectable=0;fillColor=none;align=left;strokeColor=inherit;top=0;left=0;bottom=0;right=0;spacingLeft=6;" parent="bjHw961es4BenDyh05qI-149" vertex="1">
          <mxGeometry x="30" width="290" height="30" as="geometry">
            <mxRectangle width="290" height="30" as="alternateBounds" />
          </mxGeometry>
        </mxCell>
        <mxCell id="bjHw961es4BenDyh05qI-152" value="" style="shape=tableRow;horizontal=0;startSize=0;swimlaneHead=0;swimlaneBody=0;fillColor=none;collapsible=0;dropTarget=0;points=[[0,0.5],[1,0.5]];portConstraint=eastwest;strokeColor=inherit;top=0;left=0;right=0;bottom=0;" parent="bjHw961es4BenDyh05qI-112" vertex="1">
          <mxGeometry y="360" width="320" height="30" as="geometry" />
        </mxCell>
        <mxCell id="bjHw961es4BenDyh05qI-153" value="" style="shape=partialRectangle;overflow=hidden;connectable=0;fillColor=none;strokeColor=inherit;top=0;left=0;bottom=0;right=0;" parent="bjHw961es4BenDyh05qI-152" vertex="1">
          <mxGeometry width="30" height="30" as="geometry">
            <mxRectangle width="30" height="30" as="alternateBounds" />
          </mxGeometry>
        </mxCell>
        <mxCell id="bjHw961es4BenDyh05qI-154" value="portions" style="shape=partialRectangle;overflow=hidden;connectable=0;fillColor=none;align=left;strokeColor=inherit;top=0;left=0;bottom=0;right=0;spacingLeft=6;" parent="bjHw961es4BenDyh05qI-152" vertex="1">
          <mxGeometry x="30" width="290" height="30" as="geometry">
            <mxRectangle width="290" height="30" as="alternateBounds" />
          </mxGeometry>
        </mxCell>
        <mxCell id="bjHw961es4BenDyh05qI-209" value="Meal_Type" style="shape=table;startSize=30;container=1;collapsible=1;childLayout=tableLayout;fixedRows=1;rowLines=0;fontStyle=1;align=center;resizeLast=1;" parent="1" vertex="1">
          <mxGeometry x="-2045" y="-80" width="170" height="90" as="geometry" />
        </mxCell>
        <mxCell id="bjHw961es4BenDyh05qI-210" value="" style="shape=tableRow;horizontal=0;startSize=0;swimlaneHead=0;swimlaneBody=0;fillColor=none;collapsible=0;dropTarget=0;points=[[0,0.5],[1,0.5]];portConstraint=eastwest;strokeColor=inherit;top=0;left=0;right=0;bottom=1;" parent="bjHw961es4BenDyh05qI-209" vertex="1">
          <mxGeometry y="30" width="170" height="30" as="geometry" />
        </mxCell>
        <mxCell id="bjHw961es4BenDyh05qI-211" value="PK" style="shape=partialRectangle;overflow=hidden;connectable=0;fillColor=none;strokeColor=inherit;top=0;left=0;bottom=0;right=0;fontStyle=1;" parent="bjHw961es4BenDyh05qI-210" vertex="1">
          <mxGeometry width="30" height="30" as="geometry">
            <mxRectangle width="30" height="30" as="alternateBounds" />
          </mxGeometry>
        </mxCell>
        <mxCell id="bjHw961es4BenDyh05qI-212" value="meal_type_id" style="shape=partialRectangle;overflow=hidden;connectable=0;fillColor=none;align=left;strokeColor=inherit;top=0;left=0;bottom=0;right=0;spacingLeft=6;fontStyle=5;" parent="bjHw961es4BenDyh05qI-210" vertex="1">
          <mxGeometry x="30" width="140" height="30" as="geometry">
            <mxRectangle width="140" height="30" as="alternateBounds" />
          </mxGeometry>
        </mxCell>
        <mxCell id="bjHw961es4BenDyh05qI-213" value="" style="shape=tableRow;horizontal=0;startSize=0;swimlaneHead=0;swimlaneBody=0;fillColor=none;collapsible=0;dropTarget=0;points=[[0,0.5],[1,0.5]];portConstraint=eastwest;strokeColor=inherit;top=0;left=0;right=0;bottom=0;" parent="bjHw961es4BenDyh05qI-209" vertex="1">
          <mxGeometry y="60" width="170" height="30" as="geometry" />
        </mxCell>
        <mxCell id="bjHw961es4BenDyh05qI-214" value="" style="shape=partialRectangle;overflow=hidden;connectable=0;fillColor=none;strokeColor=inherit;top=0;left=0;bottom=0;right=0;" parent="bjHw961es4BenDyh05qI-213" vertex="1">
          <mxGeometry width="30" height="30" as="geometry">
            <mxRectangle width="30" height="30" as="alternateBounds" />
          </mxGeometry>
        </mxCell>
        <mxCell id="bjHw961es4BenDyh05qI-215" value="meal_type" style="shape=partialRectangle;overflow=hidden;connectable=0;fillColor=none;align=left;strokeColor=inherit;top=0;left=0;bottom=0;right=0;spacingLeft=6;" parent="bjHw961es4BenDyh05qI-213" vertex="1">
          <mxGeometry x="30" width="140" height="30" as="geometry">
            <mxRectangle width="140" height="30" as="alternateBounds" />
          </mxGeometry>
        </mxCell>
        <mxCell id="bjHw961es4BenDyh05qI-216" value="Label" style="shape=table;startSize=30;container=1;collapsible=1;childLayout=tableLayout;fixedRows=1;rowLines=0;fontStyle=1;align=center;resizeLast=1;" parent="1" vertex="1">
          <mxGeometry x="-2015" y="14" width="140" height="90" as="geometry" />
        </mxCell>
        <mxCell id="bjHw961es4BenDyh05qI-217" value="" style="shape=tableRow;horizontal=0;startSize=0;swimlaneHead=0;swimlaneBody=0;fillColor=none;collapsible=0;dropTarget=0;points=[[0,0.5],[1,0.5]];portConstraint=eastwest;strokeColor=inherit;top=0;left=0;right=0;bottom=1;" parent="bjHw961es4BenDyh05qI-216" vertex="1">
          <mxGeometry y="30" width="140" height="30" as="geometry" />
        </mxCell>
        <mxCell id="bjHw961es4BenDyh05qI-218" value="PK" style="shape=partialRectangle;overflow=hidden;connectable=0;fillColor=none;strokeColor=inherit;top=0;left=0;bottom=0;right=0;fontStyle=1;" parent="bjHw961es4BenDyh05qI-217" vertex="1">
          <mxGeometry width="30" height="30" as="geometry">
            <mxRectangle width="30" height="30" as="alternateBounds" />
          </mxGeometry>
        </mxCell>
        <mxCell id="bjHw961es4BenDyh05qI-219" value="label_id" style="shape=partialRectangle;overflow=hidden;connectable=0;fillColor=none;align=left;strokeColor=inherit;top=0;left=0;bottom=0;right=0;spacingLeft=6;fontStyle=5;" parent="bjHw961es4BenDyh05qI-217" vertex="1">
          <mxGeometry x="30" width="110" height="30" as="geometry">
            <mxRectangle width="110" height="30" as="alternateBounds" />
          </mxGeometry>
        </mxCell>
        <mxCell id="bjHw961es4BenDyh05qI-220" value="" style="shape=tableRow;horizontal=0;startSize=0;swimlaneHead=0;swimlaneBody=0;fillColor=none;collapsible=0;dropTarget=0;points=[[0,0.5],[1,0.5]];portConstraint=eastwest;strokeColor=inherit;top=0;left=0;right=0;bottom=0;" parent="bjHw961es4BenDyh05qI-216" vertex="1">
          <mxGeometry y="60" width="140" height="30" as="geometry" />
        </mxCell>
        <mxCell id="bjHw961es4BenDyh05qI-221" value="" style="shape=partialRectangle;overflow=hidden;connectable=0;fillColor=none;strokeColor=inherit;top=0;left=0;bottom=0;right=0;" parent="bjHw961es4BenDyh05qI-220" vertex="1">
          <mxGeometry width="30" height="30" as="geometry">
            <mxRectangle width="30" height="30" as="alternateBounds" />
          </mxGeometry>
        </mxCell>
        <mxCell id="bjHw961es4BenDyh05qI-222" value="label" style="shape=partialRectangle;overflow=hidden;connectable=0;fillColor=none;align=left;strokeColor=inherit;top=0;left=0;bottom=0;right=0;spacingLeft=6;" parent="bjHw961es4BenDyh05qI-220" vertex="1">
          <mxGeometry x="30" width="110" height="30" as="geometry">
            <mxRectangle width="110" height="30" as="alternateBounds" />
          </mxGeometry>
        </mxCell>
        <mxCell id="bjHw961es4BenDyh05qI-223" value="Equipment" style="shape=table;startSize=30;container=1;collapsible=1;childLayout=tableLayout;fixedRows=1;rowLines=0;fontStyle=1;align=center;resizeLast=1;" parent="1" vertex="1">
          <mxGeometry x="-2820" y="675.28" width="250" height="120" as="geometry" />
        </mxCell>
        <mxCell id="bjHw961es4BenDyh05qI-227" value="" style="shape=tableRow;horizontal=0;startSize=0;swimlaneHead=0;swimlaneBody=0;fillColor=none;collapsible=0;dropTarget=0;points=[[0,0.5],[1,0.5]];portConstraint=eastwest;strokeColor=inherit;top=0;left=0;right=0;bottom=1;" parent="bjHw961es4BenDyh05qI-223" vertex="1">
          <mxGeometry y="30" width="250" height="30" as="geometry" />
        </mxCell>
        <mxCell id="bjHw961es4BenDyh05qI-228" value="PK" style="shape=partialRectangle;overflow=hidden;connectable=0;fillColor=none;strokeColor=inherit;top=0;left=0;bottom=0;right=0;fontStyle=1;" parent="bjHw961es4BenDyh05qI-227" vertex="1">
          <mxGeometry width="30" height="30" as="geometry">
            <mxRectangle width="30" height="30" as="alternateBounds" />
          </mxGeometry>
        </mxCell>
        <mxCell id="bjHw961es4BenDyh05qI-229" value="equipment_id" style="shape=partialRectangle;overflow=hidden;connectable=0;fillColor=none;align=left;strokeColor=inherit;top=0;left=0;bottom=0;right=0;spacingLeft=6;fontStyle=5;" parent="bjHw961es4BenDyh05qI-227" vertex="1">
          <mxGeometry x="30" width="220" height="30" as="geometry">
            <mxRectangle width="220" height="30" as="alternateBounds" />
          </mxGeometry>
        </mxCell>
        <mxCell id="bjHw961es4BenDyh05qI-230" value="" style="shape=tableRow;horizontal=0;startSize=0;swimlaneHead=0;swimlaneBody=0;fillColor=none;collapsible=0;dropTarget=0;points=[[0,0.5],[1,0.5]];portConstraint=eastwest;strokeColor=inherit;top=0;left=0;right=0;bottom=0;" parent="bjHw961es4BenDyh05qI-223" vertex="1">
          <mxGeometry y="60" width="250" height="30" as="geometry" />
        </mxCell>
        <mxCell id="bjHw961es4BenDyh05qI-231" value="" style="shape=partialRectangle;overflow=hidden;connectable=0;fillColor=none;strokeColor=inherit;top=0;left=0;bottom=0;right=0;" parent="bjHw961es4BenDyh05qI-230" vertex="1">
          <mxGeometry width="30" height="30" as="geometry">
            <mxRectangle width="30" height="30" as="alternateBounds" />
          </mxGeometry>
        </mxCell>
        <mxCell id="bjHw961es4BenDyh05qI-232" value="name" style="shape=partialRectangle;overflow=hidden;connectable=0;fillColor=none;align=left;strokeColor=inherit;top=0;left=0;bottom=0;right=0;spacingLeft=6;" parent="bjHw961es4BenDyh05qI-230" vertex="1">
          <mxGeometry x="30" width="220" height="30" as="geometry">
            <mxRectangle width="220" height="30" as="alternateBounds" />
          </mxGeometry>
        </mxCell>
        <mxCell id="bjHw961es4BenDyh05qI-233" value="" style="shape=tableRow;horizontal=0;startSize=0;swimlaneHead=0;swimlaneBody=0;fillColor=none;collapsible=0;dropTarget=0;points=[[0,0.5],[1,0.5]];portConstraint=eastwest;strokeColor=inherit;top=0;left=0;right=0;bottom=0;" parent="bjHw961es4BenDyh05qI-223" vertex="1">
          <mxGeometry y="90" width="250" height="30" as="geometry" />
        </mxCell>
        <mxCell id="bjHw961es4BenDyh05qI-234" value="" style="shape=partialRectangle;overflow=hidden;connectable=0;fillColor=none;strokeColor=inherit;top=0;left=0;bottom=0;right=0;" parent="bjHw961es4BenDyh05qI-233" vertex="1">
          <mxGeometry width="30" height="30" as="geometry">
            <mxRectangle width="30" height="30" as="alternateBounds" />
          </mxGeometry>
        </mxCell>
        <mxCell id="bjHw961es4BenDyh05qI-235" value="description" style="shape=partialRectangle;overflow=hidden;connectable=0;fillColor=none;align=left;strokeColor=inherit;top=0;left=0;bottom=0;right=0;spacingLeft=6;" parent="bjHw961es4BenDyh05qI-233" vertex="1">
          <mxGeometry x="30" width="220" height="30" as="geometry">
            <mxRectangle width="220" height="30" as="alternateBounds" />
          </mxGeometry>
        </mxCell>
        <mxCell id="bjHw961es4BenDyh05qI-251" value="Step" style="shape=table;startSize=30;container=1;collapsible=1;childLayout=tableLayout;fixedRows=1;rowLines=0;fontStyle=1;align=center;resizeLast=1;" parent="1" vertex="1">
          <mxGeometry x="-2025" y="130" width="150" height="120" as="geometry" />
        </mxCell>
        <mxCell id="bjHw961es4BenDyh05qI-255" value="" style="shape=tableRow;horizontal=0;startSize=0;swimlaneHead=0;swimlaneBody=0;fillColor=none;collapsible=0;dropTarget=0;points=[[0,0.5],[1,0.5]];portConstraint=eastwest;strokeColor=inherit;top=0;left=0;right=0;bottom=1;" parent="bjHw961es4BenDyh05qI-251" vertex="1">
          <mxGeometry y="30" width="150" height="30" as="geometry" />
        </mxCell>
        <mxCell id="bjHw961es4BenDyh05qI-256" value="PK" style="shape=partialRectangle;overflow=hidden;connectable=0;fillColor=none;strokeColor=inherit;top=0;left=0;bottom=0;right=0;fontStyle=1;" parent="bjHw961es4BenDyh05qI-255" vertex="1">
          <mxGeometry width="30" height="30" as="geometry">
            <mxRectangle width="30" height="30" as="alternateBounds" />
          </mxGeometry>
        </mxCell>
        <mxCell id="bjHw961es4BenDyh05qI-257" value="step_id" style="shape=partialRectangle;overflow=hidden;connectable=0;fillColor=none;align=left;strokeColor=inherit;top=0;left=0;bottom=0;right=0;spacingLeft=6;fontStyle=5;" parent="bjHw961es4BenDyh05qI-255" vertex="1">
          <mxGeometry x="30" width="120" height="30" as="geometry">
            <mxRectangle width="120" height="30" as="alternateBounds" />
          </mxGeometry>
        </mxCell>
        <mxCell id="bjHw961es4BenDyh05qI-258" value="" style="shape=tableRow;horizontal=0;startSize=0;swimlaneHead=0;swimlaneBody=0;fillColor=none;collapsible=0;dropTarget=0;points=[[0,0.5],[1,0.5]];portConstraint=eastwest;strokeColor=inherit;top=0;left=0;right=0;bottom=0;" parent="bjHw961es4BenDyh05qI-251" vertex="1">
          <mxGeometry y="60" width="150" height="30" as="geometry" />
        </mxCell>
        <mxCell id="bjHw961es4BenDyh05qI-259" value="" style="shape=partialRectangle;overflow=hidden;connectable=0;fillColor=none;strokeColor=inherit;top=0;left=0;bottom=0;right=0;" parent="bjHw961es4BenDyh05qI-258" vertex="1">
          <mxGeometry width="30" height="30" as="geometry">
            <mxRectangle width="30" height="30" as="alternateBounds" />
          </mxGeometry>
        </mxCell>
        <mxCell id="bjHw961es4BenDyh05qI-260" value="order_number" style="shape=partialRectangle;overflow=hidden;connectable=0;fillColor=none;align=left;strokeColor=inherit;top=0;left=0;bottom=0;right=0;spacingLeft=6;" parent="bjHw961es4BenDyh05qI-258" vertex="1">
          <mxGeometry x="30" width="120" height="30" as="geometry">
            <mxRectangle width="120" height="30" as="alternateBounds" />
          </mxGeometry>
        </mxCell>
        <mxCell id="bjHw961es4BenDyh05qI-261" value="" style="shape=tableRow;horizontal=0;startSize=0;swimlaneHead=0;swimlaneBody=0;fillColor=none;collapsible=0;dropTarget=0;points=[[0,0.5],[1,0.5]];portConstraint=eastwest;strokeColor=inherit;top=0;left=0;right=0;bottom=0;" parent="bjHw961es4BenDyh05qI-251" vertex="1">
          <mxGeometry y="90" width="150" height="30" as="geometry" />
        </mxCell>
        <mxCell id="bjHw961es4BenDyh05qI-262" value="" style="shape=partialRectangle;overflow=hidden;connectable=0;fillColor=none;strokeColor=inherit;top=0;left=0;bottom=0;right=0;" parent="bjHw961es4BenDyh05qI-261" vertex="1">
          <mxGeometry width="30" height="30" as="geometry">
            <mxRectangle width="30" height="30" as="alternateBounds" />
          </mxGeometry>
        </mxCell>
        <mxCell id="bjHw961es4BenDyh05qI-263" value="description" style="shape=partialRectangle;overflow=hidden;connectable=0;fillColor=none;align=left;strokeColor=inherit;top=0;left=0;bottom=0;right=0;spacingLeft=6;" parent="bjHw961es4BenDyh05qI-261" vertex="1">
          <mxGeometry x="30" width="120" height="30" as="geometry">
            <mxRectangle width="120" height="30" as="alternateBounds" />
          </mxGeometry>
        </mxCell>
        <mxCell id="bjHw961es4BenDyh05qI-282" value="Thematic_Unit" style="shape=table;startSize=30;container=1;collapsible=1;childLayout=tableLayout;fixedRows=1;rowLines=0;fontStyle=1;align=center;resizeLast=1;" parent="1" vertex="1">
          <mxGeometry x="-3090" y="615.28" width="210" height="120" as="geometry" />
        </mxCell>
        <mxCell id="bjHw961es4BenDyh05qI-286" value="" style="shape=tableRow;horizontal=0;startSize=0;swimlaneHead=0;swimlaneBody=0;fillColor=none;collapsible=0;dropTarget=0;points=[[0,0.5],[1,0.5]];portConstraint=eastwest;strokeColor=inherit;top=0;left=0;right=0;bottom=1;" parent="bjHw961es4BenDyh05qI-282" vertex="1">
          <mxGeometry y="30" width="210" height="30" as="geometry" />
        </mxCell>
        <mxCell id="bjHw961es4BenDyh05qI-287" value="PK" style="shape=partialRectangle;overflow=hidden;connectable=0;fillColor=none;strokeColor=inherit;top=0;left=0;bottom=0;right=0;fontStyle=1;" parent="bjHw961es4BenDyh05qI-286" vertex="1">
          <mxGeometry width="30" height="30" as="geometry">
            <mxRectangle width="30" height="30" as="alternateBounds" />
          </mxGeometry>
        </mxCell>
        <mxCell id="bjHw961es4BenDyh05qI-288" value="thematic_unit_id" style="shape=partialRectangle;overflow=hidden;connectable=0;fillColor=none;align=left;strokeColor=inherit;top=0;left=0;bottom=0;right=0;spacingLeft=6;fontStyle=5;" parent="bjHw961es4BenDyh05qI-286" vertex="1">
          <mxGeometry x="30" width="180" height="30" as="geometry">
            <mxRectangle width="180" height="30" as="alternateBounds" />
          </mxGeometry>
        </mxCell>
        <mxCell id="bjHw961es4BenDyh05qI-289" value="" style="shape=tableRow;horizontal=0;startSize=0;swimlaneHead=0;swimlaneBody=0;fillColor=none;collapsible=0;dropTarget=0;points=[[0,0.5],[1,0.5]];portConstraint=eastwest;strokeColor=inherit;top=0;left=0;right=0;bottom=0;" parent="bjHw961es4BenDyh05qI-282" vertex="1">
          <mxGeometry y="60" width="210" height="30" as="geometry" />
        </mxCell>
        <mxCell id="bjHw961es4BenDyh05qI-290" value="" style="shape=partialRectangle;overflow=hidden;connectable=0;fillColor=none;strokeColor=inherit;top=0;left=0;bottom=0;right=0;" parent="bjHw961es4BenDyh05qI-289" vertex="1">
          <mxGeometry width="30" height="30" as="geometry">
            <mxRectangle width="30" height="30" as="alternateBounds" />
          </mxGeometry>
        </mxCell>
        <mxCell id="bjHw961es4BenDyh05qI-291" value="name" style="shape=partialRectangle;overflow=hidden;connectable=0;fillColor=none;align=left;strokeColor=inherit;top=0;left=0;bottom=0;right=0;spacingLeft=6;" parent="bjHw961es4BenDyh05qI-289" vertex="1">
          <mxGeometry x="30" width="180" height="30" as="geometry">
            <mxRectangle width="180" height="30" as="alternateBounds" />
          </mxGeometry>
        </mxCell>
        <mxCell id="bjHw961es4BenDyh05qI-292" value="" style="shape=tableRow;horizontal=0;startSize=0;swimlaneHead=0;swimlaneBody=0;fillColor=none;collapsible=0;dropTarget=0;points=[[0,0.5],[1,0.5]];portConstraint=eastwest;strokeColor=inherit;top=0;left=0;right=0;bottom=0;" parent="bjHw961es4BenDyh05qI-282" vertex="1">
          <mxGeometry y="90" width="210" height="30" as="geometry" />
        </mxCell>
        <mxCell id="bjHw961es4BenDyh05qI-293" value="" style="shape=partialRectangle;overflow=hidden;connectable=0;fillColor=none;strokeColor=inherit;top=0;left=0;bottom=0;right=0;" parent="bjHw961es4BenDyh05qI-292" vertex="1">
          <mxGeometry width="30" height="30" as="geometry">
            <mxRectangle width="30" height="30" as="alternateBounds" />
          </mxGeometry>
        </mxCell>
        <mxCell id="bjHw961es4BenDyh05qI-294" value="description" style="shape=partialRectangle;overflow=hidden;connectable=0;fillColor=none;align=left;strokeColor=inherit;top=0;left=0;bottom=0;right=0;spacingLeft=6;" parent="bjHw961es4BenDyh05qI-292" vertex="1">
          <mxGeometry x="30" width="180" height="30" as="geometry">
            <mxRectangle width="180" height="30" as="alternateBounds" />
          </mxGeometry>
        </mxCell>
        <mxCell id="bjHw961es4BenDyh05qI-310" value="Cook" style="shape=table;startSize=30;container=1;collapsible=1;childLayout=tableLayout;fixedRows=1;rowLines=0;fontStyle=1;align=center;resizeLast=1;" parent="1" vertex="1">
          <mxGeometry x="-3200" y="-770" width="320" height="300" as="geometry" />
        </mxCell>
        <mxCell id="bjHw961es4BenDyh05qI-317" value="" style="shape=tableRow;horizontal=0;startSize=0;swimlaneHead=0;swimlaneBody=0;fillColor=none;collapsible=0;dropTarget=0;points=[[0,0.5],[1,0.5]];portConstraint=eastwest;strokeColor=inherit;top=0;left=0;right=0;bottom=1;" parent="bjHw961es4BenDyh05qI-310" vertex="1">
          <mxGeometry y="30" width="320" height="30" as="geometry" />
        </mxCell>
        <mxCell id="bjHw961es4BenDyh05qI-318" value="PK" style="shape=partialRectangle;overflow=hidden;connectable=0;fillColor=none;strokeColor=inherit;top=0;left=0;bottom=0;right=0;fontStyle=1;" parent="bjHw961es4BenDyh05qI-317" vertex="1">
          <mxGeometry width="30" height="30" as="geometry">
            <mxRectangle width="30" height="30" as="alternateBounds" />
          </mxGeometry>
        </mxCell>
        <mxCell id="bjHw961es4BenDyh05qI-319" value="cook_id" style="shape=partialRectangle;overflow=hidden;connectable=0;fillColor=none;align=left;strokeColor=inherit;top=0;left=0;bottom=0;right=0;spacingLeft=6;fontStyle=5;" parent="bjHw961es4BenDyh05qI-317" vertex="1">
          <mxGeometry x="30" width="290" height="30" as="geometry">
            <mxRectangle width="290" height="30" as="alternateBounds" />
          </mxGeometry>
        </mxCell>
        <mxCell id="bjHw961es4BenDyh05qI-320" value="" style="shape=tableRow;horizontal=0;startSize=0;swimlaneHead=0;swimlaneBody=0;fillColor=none;collapsible=0;dropTarget=0;points=[[0,0.5],[1,0.5]];portConstraint=eastwest;strokeColor=inherit;top=0;left=0;right=0;bottom=0;" parent="bjHw961es4BenDyh05qI-310" vertex="1">
          <mxGeometry y="60" width="320" height="30" as="geometry" />
        </mxCell>
        <mxCell id="bjHw961es4BenDyh05qI-321" value="" style="shape=partialRectangle;overflow=hidden;connectable=0;fillColor=none;strokeColor=inherit;top=0;left=0;bottom=0;right=0;" parent="bjHw961es4BenDyh05qI-320" vertex="1">
          <mxGeometry width="30" height="30" as="geometry">
            <mxRectangle width="30" height="30" as="alternateBounds" />
          </mxGeometry>
        </mxCell>
        <mxCell id="bjHw961es4BenDyh05qI-322" value="active" style="shape=partialRectangle;overflow=hidden;connectable=0;fillColor=none;align=left;strokeColor=inherit;top=0;left=0;bottom=0;right=0;spacingLeft=6;" parent="bjHw961es4BenDyh05qI-320" vertex="1">
          <mxGeometry x="30" width="290" height="30" as="geometry">
            <mxRectangle width="290" height="30" as="alternateBounds" />
          </mxGeometry>
        </mxCell>
        <mxCell id="bjHw961es4BenDyh05qI-323" value="" style="shape=tableRow;horizontal=0;startSize=0;swimlaneHead=0;swimlaneBody=0;fillColor=none;collapsible=0;dropTarget=0;points=[[0,0.5],[1,0.5]];portConstraint=eastwest;strokeColor=inherit;top=0;left=0;right=0;bottom=0;" parent="bjHw961es4BenDyh05qI-310" vertex="1">
          <mxGeometry y="90" width="320" height="30" as="geometry" />
        </mxCell>
        <mxCell id="bjHw961es4BenDyh05qI-324" value="" style="shape=partialRectangle;overflow=hidden;connectable=0;fillColor=none;strokeColor=inherit;top=0;left=0;bottom=0;right=0;" parent="bjHw961es4BenDyh05qI-323" vertex="1">
          <mxGeometry width="30" height="30" as="geometry">
            <mxRectangle width="30" height="30" as="alternateBounds" />
          </mxGeometry>
        </mxCell>
        <mxCell id="bjHw961es4BenDyh05qI-325" value="first_name" style="shape=partialRectangle;overflow=hidden;connectable=0;fillColor=none;align=left;strokeColor=inherit;top=0;left=0;bottom=0;right=0;spacingLeft=6;" parent="bjHw961es4BenDyh05qI-323" vertex="1">
          <mxGeometry x="30" width="290" height="30" as="geometry">
            <mxRectangle width="290" height="30" as="alternateBounds" />
          </mxGeometry>
        </mxCell>
        <mxCell id="bjHw961es4BenDyh05qI-326" value="" style="shape=tableRow;horizontal=0;startSize=0;swimlaneHead=0;swimlaneBody=0;fillColor=none;collapsible=0;dropTarget=0;points=[[0,0.5],[1,0.5]];portConstraint=eastwest;strokeColor=inherit;top=0;left=0;right=0;bottom=0;" parent="bjHw961es4BenDyh05qI-310" vertex="1">
          <mxGeometry y="120" width="320" height="30" as="geometry" />
        </mxCell>
        <mxCell id="bjHw961es4BenDyh05qI-327" value="" style="shape=partialRectangle;overflow=hidden;connectable=0;fillColor=none;strokeColor=inherit;top=0;left=0;bottom=0;right=0;" parent="bjHw961es4BenDyh05qI-326" vertex="1">
          <mxGeometry width="30" height="30" as="geometry">
            <mxRectangle width="30" height="30" as="alternateBounds" />
          </mxGeometry>
        </mxCell>
        <mxCell id="bjHw961es4BenDyh05qI-328" value="last_name" style="shape=partialRectangle;overflow=hidden;connectable=0;fillColor=none;align=left;strokeColor=inherit;top=0;left=0;bottom=0;right=0;spacingLeft=6;" parent="bjHw961es4BenDyh05qI-326" vertex="1">
          <mxGeometry x="30" width="290" height="30" as="geometry">
            <mxRectangle width="290" height="30" as="alternateBounds" />
          </mxGeometry>
        </mxCell>
        <mxCell id="bjHw961es4BenDyh05qI-329" value="" style="shape=tableRow;horizontal=0;startSize=0;swimlaneHead=0;swimlaneBody=0;fillColor=none;collapsible=0;dropTarget=0;points=[[0,0.5],[1,0.5]];portConstraint=eastwest;strokeColor=inherit;top=0;left=0;right=0;bottom=0;" parent="bjHw961es4BenDyh05qI-310" vertex="1">
          <mxGeometry y="150" width="320" height="30" as="geometry" />
        </mxCell>
        <mxCell id="bjHw961es4BenDyh05qI-330" value="" style="shape=partialRectangle;overflow=hidden;connectable=0;fillColor=none;strokeColor=inherit;top=0;left=0;bottom=0;right=0;" parent="bjHw961es4BenDyh05qI-329" vertex="1">
          <mxGeometry width="30" height="30" as="geometry">
            <mxRectangle width="30" height="30" as="alternateBounds" />
          </mxGeometry>
        </mxCell>
        <mxCell id="bjHw961es4BenDyh05qI-331" value="phone_number" style="shape=partialRectangle;overflow=hidden;connectable=0;fillColor=none;align=left;strokeColor=inherit;top=0;left=0;bottom=0;right=0;spacingLeft=6;" parent="bjHw961es4BenDyh05qI-329" vertex="1">
          <mxGeometry x="30" width="290" height="30" as="geometry">
            <mxRectangle width="290" height="30" as="alternateBounds" />
          </mxGeometry>
        </mxCell>
        <mxCell id="bjHw961es4BenDyh05qI-332" value="" style="shape=tableRow;horizontal=0;startSize=0;swimlaneHead=0;swimlaneBody=0;fillColor=none;collapsible=0;dropTarget=0;points=[[0,0.5],[1,0.5]];portConstraint=eastwest;strokeColor=inherit;top=0;left=0;right=0;bottom=0;" parent="bjHw961es4BenDyh05qI-310" vertex="1">
          <mxGeometry y="180" width="320" height="30" as="geometry" />
        </mxCell>
        <mxCell id="bjHw961es4BenDyh05qI-333" value="" style="shape=partialRectangle;overflow=hidden;connectable=0;fillColor=none;strokeColor=inherit;top=0;left=0;bottom=0;right=0;" parent="bjHw961es4BenDyh05qI-332" vertex="1">
          <mxGeometry width="30" height="30" as="geometry">
            <mxRectangle width="30" height="30" as="alternateBounds" />
          </mxGeometry>
        </mxCell>
        <mxCell id="bjHw961es4BenDyh05qI-334" value="date_of_birth" style="shape=partialRectangle;overflow=hidden;connectable=0;fillColor=none;align=left;strokeColor=inherit;top=0;left=0;bottom=0;right=0;spacingLeft=6;" parent="bjHw961es4BenDyh05qI-332" vertex="1">
          <mxGeometry x="30" width="290" height="30" as="geometry">
            <mxRectangle width="290" height="30" as="alternateBounds" />
          </mxGeometry>
        </mxCell>
        <mxCell id="bjHw961es4BenDyh05qI-335" value="" style="shape=tableRow;horizontal=0;startSize=0;swimlaneHead=0;swimlaneBody=0;fillColor=none;collapsible=0;dropTarget=0;points=[[0,0.5],[1,0.5]];portConstraint=eastwest;strokeColor=inherit;top=0;left=0;right=0;bottom=0;" parent="bjHw961es4BenDyh05qI-310" vertex="1">
          <mxGeometry y="210" width="320" height="30" as="geometry" />
        </mxCell>
        <mxCell id="bjHw961es4BenDyh05qI-336" value="" style="shape=partialRectangle;overflow=hidden;connectable=0;fillColor=none;strokeColor=inherit;top=0;left=0;bottom=0;right=0;" parent="bjHw961es4BenDyh05qI-335" vertex="1">
          <mxGeometry width="30" height="30" as="geometry">
            <mxRectangle width="30" height="30" as="alternateBounds" />
          </mxGeometry>
        </mxCell>
        <mxCell id="bjHw961es4BenDyh05qI-337" value="age" style="shape=partialRectangle;overflow=hidden;connectable=0;fillColor=none;align=left;strokeColor=inherit;top=0;left=0;bottom=0;right=0;spacingLeft=6;" parent="bjHw961es4BenDyh05qI-335" vertex="1">
          <mxGeometry x="30" width="290" height="30" as="geometry">
            <mxRectangle width="290" height="30" as="alternateBounds" />
          </mxGeometry>
        </mxCell>
        <mxCell id="bjHw961es4BenDyh05qI-338" value="" style="shape=tableRow;horizontal=0;startSize=0;swimlaneHead=0;swimlaneBody=0;fillColor=none;collapsible=0;dropTarget=0;points=[[0,0.5],[1,0.5]];portConstraint=eastwest;strokeColor=inherit;top=0;left=0;right=0;bottom=0;" parent="bjHw961es4BenDyh05qI-310" vertex="1">
          <mxGeometry y="240" width="320" height="30" as="geometry" />
        </mxCell>
        <mxCell id="bjHw961es4BenDyh05qI-339" value="" style="shape=partialRectangle;overflow=hidden;connectable=0;fillColor=none;strokeColor=inherit;top=0;left=0;bottom=0;right=0;" parent="bjHw961es4BenDyh05qI-338" vertex="1">
          <mxGeometry width="30" height="30" as="geometry">
            <mxRectangle width="30" height="30" as="alternateBounds" />
          </mxGeometry>
        </mxCell>
        <mxCell id="bjHw961es4BenDyh05qI-340" value="years_of_experience" style="shape=partialRectangle;overflow=hidden;connectable=0;fillColor=none;align=left;strokeColor=inherit;top=0;left=0;bottom=0;right=0;spacingLeft=6;" parent="bjHw961es4BenDyh05qI-338" vertex="1">
          <mxGeometry x="30" width="290" height="30" as="geometry">
            <mxRectangle width="290" height="30" as="alternateBounds" />
          </mxGeometry>
        </mxCell>
        <mxCell id="bjHw961es4BenDyh05qI-341" value="" style="shape=tableRow;horizontal=0;startSize=0;swimlaneHead=0;swimlaneBody=0;fillColor=none;collapsible=0;dropTarget=0;points=[[0,0.5],[1,0.5]];portConstraint=eastwest;strokeColor=inherit;top=0;left=0;right=0;bottom=0;" parent="bjHw961es4BenDyh05qI-310" vertex="1">
          <mxGeometry y="270" width="320" height="30" as="geometry" />
        </mxCell>
        <mxCell id="bjHw961es4BenDyh05qI-342" value="" style="shape=partialRectangle;overflow=hidden;connectable=0;fillColor=none;strokeColor=inherit;top=0;left=0;bottom=0;right=0;" parent="bjHw961es4BenDyh05qI-341" vertex="1">
          <mxGeometry width="30" height="30" as="geometry">
            <mxRectangle width="30" height="30" as="alternateBounds" />
          </mxGeometry>
        </mxCell>
        <mxCell id="bjHw961es4BenDyh05qI-343" value="chef_status" style="shape=partialRectangle;overflow=hidden;connectable=0;fillColor=none;align=left;strokeColor=inherit;top=0;left=0;bottom=0;right=0;spacingLeft=6;" parent="bjHw961es4BenDyh05qI-341" vertex="1">
          <mxGeometry x="30" width="290" height="30" as="geometry">
            <mxRectangle width="290" height="30" as="alternateBounds" />
          </mxGeometry>
        </mxCell>
        <mxCell id="bjHw961es4BenDyh05qI-359" value="Nutritional_Info" style="shape=table;startSize=30;container=1;collapsible=1;childLayout=tableLayout;fixedRows=1;rowLines=0;fontStyle=1;align=center;resizeLast=1;" parent="1" vertex="1">
          <mxGeometry x="-2075" y="260" width="200" height="180" as="geometry" />
        </mxCell>
        <mxCell id="bjHw961es4BenDyh05qI-363" value="" style="shape=tableRow;horizontal=0;startSize=0;swimlaneHead=0;swimlaneBody=0;fillColor=none;collapsible=0;dropTarget=0;points=[[0,0.5],[1,0.5]];portConstraint=eastwest;strokeColor=inherit;top=0;left=0;right=0;bottom=1;" parent="bjHw961es4BenDyh05qI-359" vertex="1">
          <mxGeometry y="30" width="200" height="30" as="geometry" />
        </mxCell>
        <mxCell id="bjHw961es4BenDyh05qI-364" value="PK" style="shape=partialRectangle;overflow=hidden;connectable=0;fillColor=none;strokeColor=inherit;top=0;left=0;bottom=0;right=0;fontStyle=1;" parent="bjHw961es4BenDyh05qI-363" vertex="1">
          <mxGeometry width="30" height="30" as="geometry">
            <mxRectangle width="30" height="30" as="alternateBounds" />
          </mxGeometry>
        </mxCell>
        <mxCell id="bjHw961es4BenDyh05qI-365" value="nutritional_info_id" style="shape=partialRectangle;overflow=hidden;connectable=0;fillColor=none;align=left;strokeColor=inherit;top=0;left=0;bottom=0;right=0;spacingLeft=6;fontStyle=5;" parent="bjHw961es4BenDyh05qI-363" vertex="1">
          <mxGeometry x="30" width="170" height="30" as="geometry">
            <mxRectangle width="170" height="30" as="alternateBounds" />
          </mxGeometry>
        </mxCell>
        <mxCell id="bjHw961es4BenDyh05qI-366" value="" style="shape=tableRow;horizontal=0;startSize=0;swimlaneHead=0;swimlaneBody=0;fillColor=none;collapsible=0;dropTarget=0;points=[[0,0.5],[1,0.5]];portConstraint=eastwest;strokeColor=inherit;top=0;left=0;right=0;bottom=0;" parent="bjHw961es4BenDyh05qI-359" vertex="1">
          <mxGeometry y="60" width="200" height="30" as="geometry" />
        </mxCell>
        <mxCell id="bjHw961es4BenDyh05qI-367" value="" style="shape=partialRectangle;overflow=hidden;connectable=0;fillColor=none;strokeColor=inherit;top=0;left=0;bottom=0;right=0;" parent="bjHw961es4BenDyh05qI-366" vertex="1">
          <mxGeometry width="30" height="30" as="geometry">
            <mxRectangle width="30" height="30" as="alternateBounds" />
          </mxGeometry>
        </mxCell>
        <mxCell id="bjHw961es4BenDyh05qI-368" value="fat_per_portion" style="shape=partialRectangle;overflow=hidden;connectable=0;fillColor=none;align=left;strokeColor=inherit;top=0;left=0;bottom=0;right=0;spacingLeft=6;" parent="bjHw961es4BenDyh05qI-366" vertex="1">
          <mxGeometry x="30" width="170" height="30" as="geometry">
            <mxRectangle width="170" height="30" as="alternateBounds" />
          </mxGeometry>
        </mxCell>
        <mxCell id="bjHw961es4BenDyh05qI-369" value="" style="shape=tableRow;horizontal=0;startSize=0;swimlaneHead=0;swimlaneBody=0;fillColor=none;collapsible=0;dropTarget=0;points=[[0,0.5],[1,0.5]];portConstraint=eastwest;strokeColor=inherit;top=0;left=0;right=0;bottom=0;" parent="bjHw961es4BenDyh05qI-359" vertex="1">
          <mxGeometry y="90" width="200" height="30" as="geometry" />
        </mxCell>
        <mxCell id="bjHw961es4BenDyh05qI-370" value="" style="shape=partialRectangle;overflow=hidden;connectable=0;fillColor=none;strokeColor=inherit;top=0;left=0;bottom=0;right=0;" parent="bjHw961es4BenDyh05qI-369" vertex="1">
          <mxGeometry width="30" height="30" as="geometry">
            <mxRectangle width="30" height="30" as="alternateBounds" />
          </mxGeometry>
        </mxCell>
        <mxCell id="bjHw961es4BenDyh05qI-371" value="carbs_per_portion" style="shape=partialRectangle;overflow=hidden;connectable=0;fillColor=none;align=left;strokeColor=inherit;top=0;left=0;bottom=0;right=0;spacingLeft=6;" parent="bjHw961es4BenDyh05qI-369" vertex="1">
          <mxGeometry x="30" width="170" height="30" as="geometry">
            <mxRectangle width="170" height="30" as="alternateBounds" />
          </mxGeometry>
        </mxCell>
        <mxCell id="bjHw961es4BenDyh05qI-372" value="" style="shape=tableRow;horizontal=0;startSize=0;swimlaneHead=0;swimlaneBody=0;fillColor=none;collapsible=0;dropTarget=0;points=[[0,0.5],[1,0.5]];portConstraint=eastwest;strokeColor=inherit;top=0;left=0;right=0;bottom=0;" parent="bjHw961es4BenDyh05qI-359" vertex="1">
          <mxGeometry y="120" width="200" height="30" as="geometry" />
        </mxCell>
        <mxCell id="bjHw961es4BenDyh05qI-373" value="" style="shape=partialRectangle;overflow=hidden;connectable=0;fillColor=none;strokeColor=inherit;top=0;left=0;bottom=0;right=0;" parent="bjHw961es4BenDyh05qI-372" vertex="1">
          <mxGeometry width="30" height="30" as="geometry">
            <mxRectangle width="30" height="30" as="alternateBounds" />
          </mxGeometry>
        </mxCell>
        <mxCell id="bjHw961es4BenDyh05qI-374" value="protein_per_portion" style="shape=partialRectangle;overflow=hidden;connectable=0;fillColor=none;align=left;strokeColor=inherit;top=0;left=0;bottom=0;right=0;spacingLeft=6;" parent="bjHw961es4BenDyh05qI-372" vertex="1">
          <mxGeometry x="30" width="170" height="30" as="geometry">
            <mxRectangle width="170" height="30" as="alternateBounds" />
          </mxGeometry>
        </mxCell>
        <mxCell id="bjHw961es4BenDyh05qI-375" value="" style="shape=tableRow;horizontal=0;startSize=0;swimlaneHead=0;swimlaneBody=0;fillColor=none;collapsible=0;dropTarget=0;points=[[0,0.5],[1,0.5]];portConstraint=eastwest;strokeColor=inherit;top=0;left=0;right=0;bottom=0;" parent="bjHw961es4BenDyh05qI-359" vertex="1">
          <mxGeometry y="150" width="200" height="30" as="geometry" />
        </mxCell>
        <mxCell id="bjHw961es4BenDyh05qI-376" value="" style="shape=partialRectangle;overflow=hidden;connectable=0;fillColor=none;strokeColor=inherit;top=0;left=0;bottom=0;right=0;" parent="bjHw961es4BenDyh05qI-375" vertex="1">
          <mxGeometry width="30" height="30" as="geometry">
            <mxRectangle width="30" height="30" as="alternateBounds" />
          </mxGeometry>
        </mxCell>
        <mxCell id="bjHw961es4BenDyh05qI-377" value="calories" style="shape=partialRectangle;overflow=hidden;connectable=0;fillColor=none;align=left;strokeColor=inherit;top=0;left=0;bottom=0;right=0;spacingLeft=6;" parent="bjHw961es4BenDyh05qI-375" vertex="1">
          <mxGeometry x="30" width="170" height="30" as="geometry">
            <mxRectangle width="170" height="30" as="alternateBounds" />
          </mxGeometry>
        </mxCell>
        <mxCell id="bjHw961es4BenDyh05qI-621" value="Episode" style="shape=table;startSize=30;container=1;collapsible=1;childLayout=tableLayout;fixedRows=1;rowLines=0;fontStyle=1;align=center;resizeLast=1;" parent="1" vertex="1">
          <mxGeometry x="-2700" y="-650" width="180" height="150" as="geometry" />
        </mxCell>
        <mxCell id="bjHw961es4BenDyh05qI-625" value="" style="shape=tableRow;horizontal=0;startSize=0;swimlaneHead=0;swimlaneBody=0;fillColor=none;collapsible=0;dropTarget=0;points=[[0,0.5],[1,0.5]];portConstraint=eastwest;strokeColor=inherit;top=0;left=0;right=0;bottom=1;" parent="bjHw961es4BenDyh05qI-621" vertex="1">
          <mxGeometry y="30" width="180" height="30" as="geometry" />
        </mxCell>
        <mxCell id="bjHw961es4BenDyh05qI-626" value="PK" style="shape=partialRectangle;overflow=hidden;connectable=0;fillColor=none;strokeColor=inherit;top=0;left=0;bottom=0;right=0;fontStyle=1;" parent="bjHw961es4BenDyh05qI-625" vertex="1">
          <mxGeometry width="30" height="30" as="geometry">
            <mxRectangle width="30" height="30" as="alternateBounds" />
          </mxGeometry>
        </mxCell>
        <mxCell id="bjHw961es4BenDyh05qI-627" value="episode_id" style="shape=partialRectangle;overflow=hidden;connectable=0;fillColor=none;align=left;strokeColor=inherit;top=0;left=0;bottom=0;right=0;spacingLeft=6;fontStyle=5;" parent="bjHw961es4BenDyh05qI-625" vertex="1">
          <mxGeometry x="30" width="150" height="30" as="geometry">
            <mxRectangle width="150" height="30" as="alternateBounds" />
          </mxGeometry>
        </mxCell>
        <mxCell id="bjHw961es4BenDyh05qI-628" value="" style="shape=tableRow;horizontal=0;startSize=0;swimlaneHead=0;swimlaneBody=0;fillColor=none;collapsible=0;dropTarget=0;points=[[0,0.5],[1,0.5]];portConstraint=eastwest;strokeColor=inherit;top=0;left=0;right=0;bottom=0;" parent="bjHw961es4BenDyh05qI-621" vertex="1">
          <mxGeometry y="60" width="180" height="30" as="geometry" />
        </mxCell>
        <mxCell id="bjHw961es4BenDyh05qI-629" value="" style="shape=partialRectangle;overflow=hidden;connectable=0;fillColor=none;strokeColor=inherit;top=0;left=0;bottom=0;right=0;" parent="bjHw961es4BenDyh05qI-628" vertex="1">
          <mxGeometry width="30" height="30" as="geometry">
            <mxRectangle width="30" height="30" as="alternateBounds" />
          </mxGeometry>
        </mxCell>
        <mxCell id="bjHw961es4BenDyh05qI-630" value="year" style="shape=partialRectangle;overflow=hidden;connectable=0;fillColor=none;align=left;strokeColor=inherit;top=0;left=0;bottom=0;right=0;spacingLeft=6;" parent="bjHw961es4BenDyh05qI-628" vertex="1">
          <mxGeometry x="30" width="150" height="30" as="geometry">
            <mxRectangle width="150" height="30" as="alternateBounds" />
          </mxGeometry>
        </mxCell>
        <mxCell id="bjHw961es4BenDyh05qI-631" value="" style="shape=tableRow;horizontal=0;startSize=0;swimlaneHead=0;swimlaneBody=0;fillColor=none;collapsible=0;dropTarget=0;points=[[0,0.5],[1,0.5]];portConstraint=eastwest;strokeColor=inherit;top=0;left=0;right=0;bottom=0;" parent="bjHw961es4BenDyh05qI-621" vertex="1">
          <mxGeometry y="90" width="180" height="30" as="geometry" />
        </mxCell>
        <mxCell id="bjHw961es4BenDyh05qI-632" value="" style="shape=partialRectangle;overflow=hidden;connectable=0;fillColor=none;strokeColor=inherit;top=0;left=0;bottom=0;right=0;" parent="bjHw961es4BenDyh05qI-631" vertex="1">
          <mxGeometry width="30" height="30" as="geometry">
            <mxRectangle width="30" height="30" as="alternateBounds" />
          </mxGeometry>
        </mxCell>
        <mxCell id="bjHw961es4BenDyh05qI-633" value="episode_number" style="shape=partialRectangle;overflow=hidden;connectable=0;fillColor=none;align=left;strokeColor=inherit;top=0;left=0;bottom=0;right=0;spacingLeft=6;" parent="bjHw961es4BenDyh05qI-631" vertex="1">
          <mxGeometry x="30" width="150" height="30" as="geometry">
            <mxRectangle width="150" height="30" as="alternateBounds" />
          </mxGeometry>
        </mxCell>
        <mxCell id="bjHw961es4BenDyh05qI-634" value="" style="shape=tableRow;horizontal=0;startSize=0;swimlaneHead=0;swimlaneBody=0;fillColor=none;collapsible=0;dropTarget=0;points=[[0,0.5],[1,0.5]];portConstraint=eastwest;strokeColor=inherit;top=0;left=0;right=0;bottom=0;" parent="bjHw961es4BenDyh05qI-621" vertex="1">
          <mxGeometry y="120" width="180" height="30" as="geometry" />
        </mxCell>
        <mxCell id="bjHw961es4BenDyh05qI-635" value="" style="shape=partialRectangle;overflow=hidden;connectable=0;fillColor=none;strokeColor=inherit;top=0;left=0;bottom=0;right=0;" parent="bjHw961es4BenDyh05qI-634" vertex="1">
          <mxGeometry width="30" height="30" as="geometry">
            <mxRectangle width="30" height="30" as="alternateBounds" />
          </mxGeometry>
        </mxCell>
        <mxCell id="bjHw961es4BenDyh05qI-636" value="winner_cook_id " style="shape=partialRectangle;overflow=hidden;connectable=0;fillColor=none;align=left;strokeColor=inherit;top=0;left=0;bottom=0;right=0;spacingLeft=6;" parent="bjHw961es4BenDyh05qI-634" vertex="1">
          <mxGeometry x="30" width="150" height="30" as="geometry">
            <mxRectangle width="150" height="30" as="alternateBounds" />
          </mxGeometry>
        </mxCell>
        <mxCell id="bjHw961es4BenDyh05qI-881" value="" style="shape=link;html=1;rounded=0;exitX=1;exitY=0.5;exitDx=0;exitDy=0;entryX=0;entryY=0.5;entryDx=0;entryDy=0;" parent="1" target="bjHw961es4BenDyh05qI-883" edge="1">
          <mxGeometry width="100" relative="1" as="geometry">
            <mxPoint x="-4260" y="-758" as="sourcePoint" />
            <mxPoint x="-4190" y="-888" as="targetPoint" />
          </mxGeometry>
        </mxCell>
        <mxCell id="bjHw961es4BenDyh05qI-884" style="edgeStyle=orthogonalEdgeStyle;rounded=0;orthogonalLoop=1;jettySize=auto;html=1;entryX=0;entryY=0.5;entryDx=0;entryDy=0;" parent="1" source="bjHw961es4BenDyh05qI-883" target="bjHw961es4BenDyh05qI-2" edge="1">
          <mxGeometry relative="1" as="geometry" />
        </mxCell>
        <mxCell id="bjHw961es4BenDyh05qI-883" value="is a" style="shape=rhombus;double=1;perimeter=rhombusPerimeter;whiteSpace=wrap;html=1;align=center;" parent="1" vertex="1">
          <mxGeometry x="-4200" y="-788" width="130" height="60" as="geometry" />
        </mxCell>
        <mxCell id="bjHw961es4BenDyh05qI-887" value="has" style="shape=rhombus;perimeter=rhombusPerimeter;whiteSpace=wrap;html=1;align=center;" parent="1" vertex="1">
          <mxGeometry x="-3815" y="-30" width="90" height="60" as="geometry" />
        </mxCell>
        <mxCell id="bjHw961es4BenDyh05qI-893" value="" style="endArrow=none;html=1;rounded=0;entryX=0.5;entryY=0;entryDx=0;entryDy=0;exitX=0;exitY=0.5;exitDx=0;exitDy=0;" parent="1" source="bjHw961es4BenDyh05qI-32" target="bjHw961es4BenDyh05qI-887" edge="1">
          <mxGeometry relative="1" as="geometry">
            <mxPoint x="-3286" y="-320" as="sourcePoint" />
            <mxPoint x="-3350" y="-120" as="targetPoint" />
            <Array as="points">
              <mxPoint x="-3770" y="-340" />
            </Array>
          </mxGeometry>
        </mxCell>
        <mxCell id="bjHw961es4BenDyh05qI-894" value="depicts_recipe" style="shape=rhombus;perimeter=rhombusPerimeter;whiteSpace=wrap;html=1;align=center;" parent="1" vertex="1">
          <mxGeometry x="-3650" y="265" width="100" height="60" as="geometry" />
        </mxCell>
        <mxCell id="bjHw961es4BenDyh05qI-895" style="edgeStyle=orthogonalEdgeStyle;rounded=0;orthogonalLoop=1;jettySize=auto;html=1;exitX=0;exitY=0.5;exitDx=0;exitDy=0;entryX=1.012;entryY=0.944;entryDx=0;entryDy=0;entryPerimeter=0;" parent="1" source="bjHw961es4BenDyh05qI-894" target="bjHw961es4BenDyh05qI-19" edge="1">
          <mxGeometry relative="1" as="geometry" />
        </mxCell>
        <mxCell id="bjHw961es4BenDyh05qI-916" style="edgeStyle=orthogonalEdgeStyle;rounded=0;orthogonalLoop=1;jettySize=auto;html=1;exitX=1;exitY=0.5;exitDx=0;exitDy=0;entryX=0;entryY=0.5;entryDx=0;entryDy=0;" parent="1" source="bjHw961es4BenDyh05qI-900" target="bjHw961es4BenDyh05qI-146" edge="1">
          <mxGeometry relative="1" as="geometry" />
        </mxCell>
        <mxCell id="bjHw961es4BenDyh05qI-924" style="edgeStyle=orthogonalEdgeStyle;rounded=0;orthogonalLoop=1;jettySize=auto;html=1;exitX=0;exitY=0.5;exitDx=0;exitDy=0;entryX=1;entryY=0.5;entryDx=0;entryDy=0;" parent="1" source="bjHw961es4BenDyh05qI-900" edge="1">
          <mxGeometry relative="1" as="geometry">
            <mxPoint x="-4100" y="235" as="targetPoint" />
          </mxGeometry>
        </mxCell>
        <mxCell id="bjHw961es4BenDyh05qI-900" value="has_basic_ingredient" style="shape=rhombus;perimeter=rhombusPerimeter;whiteSpace=wrap;html=1;align=center;" parent="1" vertex="1">
          <mxGeometry x="-4080" y="195" width="180" height="80" as="geometry" />
        </mxCell>
        <mxCell id="bjHw961es4BenDyh05qI-906" value="Recipe_Meal_Type" style="shape=rhombus;perimeter=rhombusPerimeter;whiteSpace=wrap;html=1;align=center;" parent="1" vertex="1">
          <mxGeometry x="-2340" y="-70" width="180" height="60" as="geometry" />
        </mxCell>
        <mxCell id="bjHw961es4BenDyh05qI-907" value="" style="endArrow=none;html=1;rounded=0;entryX=1;entryY=0.5;entryDx=0;entryDy=0;" parent="1" target="bjHw961es4BenDyh05qI-906" edge="1">
          <mxGeometry relative="1" as="geometry">
            <mxPoint x="-2050" y="-40" as="sourcePoint" />
            <mxPoint x="-2261.28" y="-144.18" as="targetPoint" />
            <Array as="points" />
          </mxGeometry>
        </mxCell>
        <mxCell id="bjHw961es4BenDyh05qI-908" value="0..*" style="resizable=0;html=1;whiteSpace=wrap;align=left;verticalAlign=bottom;" parent="bjHw961es4BenDyh05qI-907" connectable="0" vertex="1">
          <mxGeometry x="-1" relative="1" as="geometry">
            <mxPoint x="-110" as="offset" />
          </mxGeometry>
        </mxCell>
        <mxCell id="bjHw961es4BenDyh05qI-913" value="Recipel_Label" style="shape=rhombus;perimeter=rhombusPerimeter;whiteSpace=wrap;html=1;align=center;" parent="1" vertex="1">
          <mxGeometry x="-2310" y="25" width="180" height="60" as="geometry" />
        </mxCell>
        <mxCell id="bjHw961es4BenDyh05qI-920" style="edgeStyle=orthogonalEdgeStyle;rounded=0;orthogonalLoop=1;jettySize=auto;html=1;exitX=1;exitY=0.5;exitDx=0;exitDy=0;entryX=0;entryY=0.5;entryDx=0;entryDy=0;" parent="1" source="bjHw961es4BenDyh05qI-918" target="bjHw961es4BenDyh05qI-45" edge="1">
          <mxGeometry relative="1" as="geometry" />
        </mxCell>
        <mxCell id="bjHw961es4BenDyh05qI-918" value="belongs_to" style="shape=rhombus;perimeter=rhombusPerimeter;whiteSpace=wrap;html=1;align=center;" parent="1" vertex="1">
          <mxGeometry x="-4305" y="675" width="90" height="60" as="geometry" />
        </mxCell>
        <mxCell id="bjHw961es4BenDyh05qI-919" value="" style="endArrow=none;html=1;rounded=0;entryX=0;entryY=0.5;entryDx=0;entryDy=0;exitX=0.358;exitY=1.064;exitDx=0;exitDy=0;exitPerimeter=0;" parent="1" source="bjHw961es4BenDyh05qI-79" target="bjHw961es4BenDyh05qI-918" edge="1">
          <mxGeometry relative="1" as="geometry">
            <mxPoint x="-4096.799999999999" y="425.59000000000015" as="sourcePoint" />
            <mxPoint x="-4070" y="600" as="targetPoint" />
          </mxGeometry>
        </mxCell>
        <mxCell id="bjHw961es4BenDyh05qI-921" value="depicts_ingredient" style="shape=rhombus;perimeter=rhombusPerimeter;whiteSpace=wrap;html=1;align=center;" parent="1" vertex="1">
          <mxGeometry x="-4005" y="265" width="125" height="60" as="geometry" />
        </mxCell>
        <mxCell id="bjHw961es4BenDyh05qI-922" style="edgeStyle=orthogonalEdgeStyle;rounded=0;orthogonalLoop=1;jettySize=auto;html=1;exitX=1;exitY=0.5;exitDx=0;exitDy=0;entryX=0.015;entryY=0.227;entryDx=0;entryDy=0;entryPerimeter=0;" parent="1" source="bjHw961es4BenDyh05qI-921" target="bjHw961es4BenDyh05qI-22" edge="1">
          <mxGeometry relative="1" as="geometry" />
        </mxCell>
        <mxCell id="bjHw961es4BenDyh05qI-926" value="depicts_food_group" style="shape=rhombus;perimeter=rhombusPerimeter;whiteSpace=wrap;html=1;align=center;" parent="1" vertex="1">
          <mxGeometry x="-4060" y="470" width="160" height="60" as="geometry" />
        </mxCell>
        <mxCell id="bjHw961es4BenDyh05qI-932" value="depicts_equipment" style="shape=rhombus;perimeter=rhombusPerimeter;whiteSpace=wrap;html=1;align=center;" parent="1" vertex="1">
          <mxGeometry x="-3710" y="737.78" width="140" height="85" as="geometry" />
        </mxCell>
        <mxCell id="bjHw961es4BenDyh05qI-936" value="Recipe_Equipment" style="shape=rhombus;perimeter=rhombusPerimeter;whiteSpace=wrap;html=1;align=center;" parent="1" vertex="1">
          <mxGeometry x="-2785" y="515.28" width="180" height="60" as="geometry" />
        </mxCell>
        <mxCell id="bjHw961es4BenDyh05qI-937" value="" style="endArrow=none;html=1;rounded=0;exitX=1;exitY=0.5;exitDx=0;exitDy=0;entryX=0;entryY=0.5;entryDx=0;entryDy=0;" parent="1" source="bjHw961es4BenDyh05qI-128" target="bjHw961es4BenDyh05qI-913" edge="1">
          <mxGeometry relative="1" as="geometry">
            <mxPoint x="-2780" y="11" as="sourcePoint" />
            <mxPoint x="-2750" y="10" as="targetPoint" />
          </mxGeometry>
        </mxCell>
        <mxCell id="bjHw961es4BenDyh05qI-938" value="0..*" style="resizable=0;html=1;whiteSpace=wrap;align=left;verticalAlign=bottom;" parent="bjHw961es4BenDyh05qI-937" connectable="0" vertex="1">
          <mxGeometry x="-1" relative="1" as="geometry">
            <mxPoint x="450" as="offset" />
          </mxGeometry>
        </mxCell>
        <mxCell id="bjHw961es4BenDyh05qI-939" value="" style="endArrow=none;html=1;rounded=0;entryX=-0.017;entryY=0.396;entryDx=0;entryDy=0;entryPerimeter=0;exitX=1;exitY=0.5;exitDx=0;exitDy=0;" parent="1" source="bjHw961es4BenDyh05qI-913" target="bjHw961es4BenDyh05qI-217" edge="1">
          <mxGeometry relative="1" as="geometry">
            <mxPoint x="-2130" y="60" as="sourcePoint" />
            <mxPoint x="-2300" y="70" as="targetPoint" />
          </mxGeometry>
        </mxCell>
        <mxCell id="bjHw961es4BenDyh05qI-940" value="0..*" style="resizable=0;html=1;whiteSpace=wrap;align=left;verticalAlign=bottom;" parent="bjHw961es4BenDyh05qI-939" connectable="0" vertex="1">
          <mxGeometry x="-1" relative="1" as="geometry" />
        </mxCell>
        <mxCell id="bjHw961es4BenDyh05qI-943" value="" style="endArrow=none;html=1;rounded=0;exitX=0.5;exitY=1;exitDx=0;exitDy=0;entryX=0.5;entryY=0;entryDx=0;entryDy=0;" parent="1" source="bjHw961es4BenDyh05qI-936" target="bjHw961es4BenDyh05qI-223" edge="1">
          <mxGeometry relative="1" as="geometry">
            <mxPoint x="-2780" y="350.28" as="sourcePoint" />
            <mxPoint x="-2720" y="385.28" as="targetPoint" />
          </mxGeometry>
        </mxCell>
        <mxCell id="bjHw961es4BenDyh05qI-944" value="0..*" style="resizable=0;html=1;whiteSpace=wrap;align=left;verticalAlign=bottom;" parent="bjHw961es4BenDyh05qI-943" connectable="0" vertex="1">
          <mxGeometry x="-1" relative="1" as="geometry">
            <mxPoint x="10" y="25" as="offset" />
          </mxGeometry>
        </mxCell>
        <mxCell id="bjHw961es4BenDyh05qI-945" value="Recipe_Ingredient" style="shape=rhombus;perimeter=rhombusPerimeter;whiteSpace=wrap;html=1;align=center;" parent="1" vertex="1">
          <mxGeometry x="-3880" y="75" width="180" height="80" as="geometry" />
        </mxCell>
        <mxCell id="bjHw961es4BenDyh05qI-949" value="" style="endArrow=none;html=1;rounded=0;entryX=0;entryY=0.5;entryDx=0;entryDy=0;" parent="1" target="bjHw961es4BenDyh05qI-945" edge="1">
          <mxGeometry relative="1" as="geometry">
            <mxPoint x="-4270" y="190" as="sourcePoint" />
            <mxPoint x="-3940" y="125" as="targetPoint" />
            <Array as="points">
              <mxPoint x="-4270" y="115" />
            </Array>
          </mxGeometry>
        </mxCell>
        <mxCell id="bjHw961es4BenDyh05qI-951" value="0..*" style="resizable=0;html=1;whiteSpace=wrap;align=right;verticalAlign=bottom;" parent="bjHw961es4BenDyh05qI-949" connectable="0" vertex="1">
          <mxGeometry x="1" relative="1" as="geometry">
            <mxPoint as="offset" />
          </mxGeometry>
        </mxCell>
        <mxCell id="bjHw961es4BenDyh05qI-952" style="edgeStyle=orthogonalEdgeStyle;rounded=0;orthogonalLoop=1;jettySize=auto;html=1;exitX=0.5;exitY=0;exitDx=0;exitDy=0;entryX=-0.001;entryY=0.044;entryDx=0;entryDy=0;entryPerimeter=0;" parent="1" source="bjHw961es4BenDyh05qI-926" target="bjHw961es4BenDyh05qI-25" edge="1">
          <mxGeometry relative="1" as="geometry" />
        </mxCell>
        <mxCell id="bjHw961es4BenDyh05qI-956" style="edgeStyle=orthogonalEdgeStyle;rounded=0;orthogonalLoop=1;jettySize=auto;html=1;entryX=1;entryY=0.5;entryDx=0;entryDy=0;" parent="1" source="bjHw961es4BenDyh05qI-955" target="bjHw961es4BenDyh05qI-25" edge="1">
          <mxGeometry relative="1" as="geometry">
            <mxPoint x="-3700" y="500.28" as="targetPoint" />
          </mxGeometry>
        </mxCell>
        <mxCell id="bjHw961es4BenDyh05qI-955" value="depicts_thematic_unit" style="shape=rhombus;perimeter=rhombusPerimeter;whiteSpace=wrap;html=1;align=center;" parent="1" vertex="1">
          <mxGeometry x="-3620" y="545.28" width="150" height="90" as="geometry" />
        </mxCell>
        <mxCell id="bjHw961es4BenDyh05qI-958" value="Recipe_Thematic_Unit" style="shape=rhombus;perimeter=rhombusPerimeter;whiteSpace=wrap;html=1;align=center;" parent="1" vertex="1">
          <mxGeometry x="-3075" y="495.28" width="180" height="80" as="geometry" />
        </mxCell>
        <mxCell id="bjHw961es4BenDyh05qI-962" value="" style="endArrow=none;html=1;rounded=0;exitX=0.5;exitY=0;exitDx=0;exitDy=0;entryX=0.5;entryY=1;entryDx=0;entryDy=0;" parent="1" source="bjHw961es4BenDyh05qI-282" target="bjHw961es4BenDyh05qI-958" edge="1">
          <mxGeometry relative="1" as="geometry">
            <mxPoint x="-2985.2" y="340.7199999999998" as="sourcePoint" />
            <mxPoint x="-2980" y="580" as="targetPoint" />
          </mxGeometry>
        </mxCell>
        <mxCell id="bjHw961es4BenDyh05qI-963" value="0..*" style="resizable=0;html=1;whiteSpace=wrap;align=left;verticalAlign=bottom;" parent="bjHw961es4BenDyh05qI-962" connectable="0" vertex="1">
          <mxGeometry x="-1" relative="1" as="geometry">
            <mxPoint y="-15" as="offset" />
          </mxGeometry>
        </mxCell>
        <mxCell id="bjHw961es4BenDyh05qI-964" value="depicts_cook" style="shape=rhombus;perimeter=rhombusPerimeter;whiteSpace=wrap;html=1;align=center;" parent="1" vertex="1">
          <mxGeometry x="-4200" y="-650" width="100" height="60" as="geometry" />
        </mxCell>
        <mxCell id="bjHw961es4BenDyh05qI-966" style="edgeStyle=orthogonalEdgeStyle;rounded=0;orthogonalLoop=1;jettySize=auto;html=1;exitX=0;exitY=0.5;exitDx=0;exitDy=0;entryX=-0.01;entryY=0.96;entryDx=0;entryDy=0;entryPerimeter=0;" parent="1" source="bjHw961es4BenDyh05qI-964" target="bjHw961es4BenDyh05qI-25" edge="1">
          <mxGeometry relative="1" as="geometry">
            <Array as="points">
              <mxPoint x="-4480" y="-620" />
              <mxPoint x="-4480" y="409" />
            </Array>
          </mxGeometry>
        </mxCell>
        <mxCell id="bjHw961es4BenDyh05qI-968" value="" style="shape=link;html=1;rounded=0;entryX=1;entryY=0.5;entryDx=0;entryDy=0;exitX=0;exitY=0.067;exitDx=0;exitDy=0;exitPerimeter=0;" parent="1" source="bjHw961es4BenDyh05qI-310" target="bjHw961es4BenDyh05qI-970" edge="1">
          <mxGeometry width="100" relative="1" as="geometry">
            <mxPoint x="-3280.3100000000004" y="-749.95" as="sourcePoint" />
            <mxPoint x="-3455" y="-950" as="targetPoint" />
          </mxGeometry>
        </mxCell>
        <mxCell id="bjHw961es4BenDyh05qI-1014" style="edgeStyle=orthogonalEdgeStyle;rounded=0;orthogonalLoop=1;jettySize=auto;html=1;entryX=1.004;entryY=0.672;entryDx=0;entryDy=0;entryPerimeter=0;" parent="1" source="bjHw961es4BenDyh05qI-970" target="bjHw961es4BenDyh05qI-2" edge="1">
          <mxGeometry relative="1" as="geometry" />
        </mxCell>
        <mxCell id="bjHw961es4BenDyh05qI-970" value="is a" style="shape=rhombus;double=1;perimeter=rhombusPerimeter;whiteSpace=wrap;html=1;align=center;" parent="1" vertex="1">
          <mxGeometry x="-3810" y="-783" width="130" height="60" as="geometry" />
        </mxCell>
        <mxCell id="bjHw961es4BenDyh05qI-971" value="Recipe_Cook" style="shape=rhombus;perimeter=rhombusPerimeter;whiteSpace=wrap;html=1;align=center;" parent="1" vertex="1">
          <mxGeometry x="-4045" y="-145" width="180" height="60" as="geometry" />
        </mxCell>
        <mxCell id="bjHw961es4BenDyh05qI-976" value="Cook_National_Cuisine" style="shape=rhombus;perimeter=rhombusPerimeter;whiteSpace=wrap;html=1;align=center;" parent="1" vertex="1">
          <mxGeometry x="-3730" y="-519" width="180" height="60" as="geometry" />
        </mxCell>
        <mxCell id="bjHw961es4BenDyh05qI-977" value="" style="endArrow=none;html=1;rounded=0;entryX=0.5;entryY=1;entryDx=0;entryDy=0;exitX=0;exitY=0.25;exitDx=0;exitDy=0;" parent="1" source="bjHw961es4BenDyh05qI-28" target="bjHw961es4BenDyh05qI-976" edge="1">
          <mxGeometry relative="1" as="geometry">
            <mxPoint x="-3390" y="-425" as="sourcePoint" />
            <mxPoint x="-3110" y="-420" as="targetPoint" />
            <Array as="points">
              <mxPoint x="-3580" y="-392" />
              <mxPoint x="-3640" y="-392" />
            </Array>
          </mxGeometry>
        </mxCell>
        <mxCell id="zmyhSK9maccIYMPKEaOa-89" style="edgeStyle=orthogonalEdgeStyle;rounded=0;orthogonalLoop=1;jettySize=auto;html=1;entryX=0;entryY=0.5;entryDx=0;entryDy=0;" parent="1" source="bjHw961es4BenDyh05qI-982" target="bjHw961es4BenDyh05qI-255" edge="1">
          <mxGeometry relative="1" as="geometry" />
        </mxCell>
        <mxCell id="bjHw961es4BenDyh05qI-982" value="Recipel_Step" style="shape=rhombus;perimeter=rhombusPerimeter;whiteSpace=wrap;html=1;align=center;" parent="1" vertex="1">
          <mxGeometry x="-2300" y="145" width="180" height="60" as="geometry" />
        </mxCell>
        <mxCell id="bjHw961es4BenDyh05qI-992" style="edgeStyle=orthogonalEdgeStyle;rounded=0;orthogonalLoop=1;jettySize=auto;html=1;exitX=1;exitY=0.5;exitDx=0;exitDy=0;entryX=0;entryY=0.5;entryDx=0;entryDy=0;" parent="1" source="bjHw961es4BenDyh05qI-990" target="bjHw961es4BenDyh05qI-363" edge="1">
          <mxGeometry relative="1" as="geometry" />
        </mxCell>
        <mxCell id="bjHw961es4BenDyh05qI-990" value="Recipe_Nutritional_Info" style="shape=rhombus;perimeter=rhombusPerimeter;whiteSpace=wrap;html=1;align=center;" parent="1" vertex="1">
          <mxGeometry x="-2320" y="275" width="180" height="60" as="geometry" />
        </mxCell>
        <mxCell id="bjHw961es4BenDyh05qI-997" value="depicts_episode" style="shape=rhombus;perimeter=rhombusPerimeter;whiteSpace=wrap;html=1;align=center;" parent="1" vertex="1">
          <mxGeometry x="-1860" y="-240" width="150" height="90" as="geometry" />
        </mxCell>
        <mxCell id="bjHw961es4BenDyh05qI-999" style="edgeStyle=orthogonalEdgeStyle;rounded=0;orthogonalLoop=1;jettySize=auto;html=1;exitX=0.5;exitY=1;exitDx=0;exitDy=0;" parent="1" source="bjHw961es4BenDyh05qI-997" edge="1">
          <mxGeometry relative="1" as="geometry">
            <mxPoint x="-3780" y="410" as="targetPoint" />
            <Array as="points">
              <mxPoint x="-1785" y="880" />
              <mxPoint x="-3780" y="880" />
            </Array>
          </mxGeometry>
        </mxCell>
        <mxCell id="bjHw961es4BenDyh05qI-1000" value="Episode_Judge" style="shape=rhombus;perimeter=rhombusPerimeter;whiteSpace=wrap;html=1;align=center;" parent="1" vertex="1">
          <mxGeometry x="-2930" y="-1070" width="180" height="60" as="geometry" />
        </mxCell>
        <mxCell id="bjHw961es4BenDyh05qI-1001" value="" style="endArrow=none;html=1;rounded=0;exitX=1;exitY=0.5;exitDx=0;exitDy=0;entryX=0.5;entryY=0;entryDx=0;entryDy=0;" parent="1" source="bjHw961es4BenDyh05qI-1000" target="bjHw961es4BenDyh05qI-621" edge="1">
          <mxGeometry relative="1" as="geometry">
            <mxPoint x="-2510" y="-400" as="sourcePoint" />
            <mxPoint x="-2275" y="-400" as="targetPoint" />
            <Array as="points">
              <mxPoint x="-2610" y="-1040" />
              <mxPoint x="-2610" y="-865" />
            </Array>
          </mxGeometry>
        </mxCell>
        <mxCell id="bjHw961es4BenDyh05qI-1002" value="0..*" style="resizable=0;html=1;whiteSpace=wrap;align=left;verticalAlign=bottom;" parent="bjHw961es4BenDyh05qI-1001" connectable="0" vertex="1">
          <mxGeometry x="-1" relative="1" as="geometry">
            <mxPoint x="-200" y="30" as="offset" />
          </mxGeometry>
        </mxCell>
        <mxCell id="bjHw961es4BenDyh05qI-1003" value="" style="endArrow=none;html=1;rounded=0;exitX=0;exitY=0.5;exitDx=0;exitDy=0;entryX=0.857;entryY=0.003;entryDx=0;entryDy=0;entryPerimeter=0;" parent="1" source="bjHw961es4BenDyh05qI-1000" target="bjHw961es4BenDyh05qI-310" edge="1">
          <mxGeometry relative="1" as="geometry">
            <mxPoint x="-2750" y="-855" as="sourcePoint" />
            <mxPoint x="-2920" y="-790" as="targetPoint" />
            <Array as="points">
              <mxPoint x="-2930" y="-960" />
              <mxPoint x="-2930" y="-870" />
              <mxPoint x="-2930" y="-810" />
            </Array>
          </mxGeometry>
        </mxCell>
        <mxCell id="bjHw961es4BenDyh05qI-1004" value="3..3" style="resizable=0;html=1;whiteSpace=wrap;align=left;verticalAlign=bottom;" parent="bjHw961es4BenDyh05qI-1003" connectable="0" vertex="1">
          <mxGeometry x="-1" relative="1" as="geometry">
            <mxPoint x="180" as="offset" />
          </mxGeometry>
        </mxCell>
        <mxCell id="bjHw961es4BenDyh05qI-1005" value="Episode_Combo" style="shape=rhombus;perimeter=rhombusPerimeter;whiteSpace=wrap;html=1;align=center;" parent="1" vertex="1">
          <mxGeometry x="-3025" y="-415" width="150" height="90" as="geometry" />
        </mxCell>
        <mxCell id="bjHw961es4BenDyh05qI-1006" value="" style="endArrow=none;html=1;rounded=0;exitX=1;exitY=0.5;exitDx=0;exitDy=0;entryX=0;entryY=0.5;entryDx=0;entryDy=0;" parent="1" source="bjHw961es4BenDyh05qI-1005" target="bjHw961es4BenDyh05qI-634" edge="1">
          <mxGeometry relative="1" as="geometry">
            <mxPoint x="-2650" y="-370" as="sourcePoint" />
            <mxPoint x="-2415" y="-370" as="targetPoint" />
            <Array as="points">
              <mxPoint x="-2760" y="-370" />
              <mxPoint x="-2760" y="-515" />
            </Array>
          </mxGeometry>
        </mxCell>
        <mxCell id="bjHw961es4BenDyh05qI-1008" value="" style="endArrow=none;html=1;rounded=0;exitX=0.5;exitY=0;exitDx=0;exitDy=0;entryX=0.783;entryY=1.118;entryDx=0;entryDy=0;entryPerimeter=0;" parent="1" source="bjHw961es4BenDyh05qI-1005" target="bjHw961es4BenDyh05qI-341" edge="1">
          <mxGeometry relative="1" as="geometry">
            <mxPoint x="-2680" y="-345" as="sourcePoint" />
            <mxPoint x="-2240" y="-345" as="targetPoint" />
          </mxGeometry>
        </mxCell>
        <mxCell id="bjHw961es4BenDyh05qI-1009" value="" style="endArrow=none;html=1;rounded=0;exitX=0.5;exitY=1;exitDx=0;exitDy=0;" parent="1" source="bjHw961es4BenDyh05qI-1005" target="bjHw961es4BenDyh05qI-112" edge="1">
          <mxGeometry relative="1" as="geometry">
            <mxPoint x="-2670" y="-335" as="sourcePoint" />
            <mxPoint x="-2230" y="-335" as="targetPoint" />
          </mxGeometry>
        </mxCell>
        <mxCell id="bjHw961es4BenDyh05qI-1015" style="edgeStyle=orthogonalEdgeStyle;rounded=0;orthogonalLoop=1;jettySize=auto;html=1;entryX=0.643;entryY=1;entryDx=0;entryDy=0;entryPerimeter=0;" parent="1" source="bjHw961es4BenDyh05qI-932" target="bjHw961es4BenDyh05qI-25" edge="1">
          <mxGeometry relative="1" as="geometry">
            <mxPoint x="-3750" y="420" as="targetPoint" />
            <Array as="points">
              <mxPoint x="-3750" y="780" />
            </Array>
          </mxGeometry>
        </mxCell>
        <mxCell id="zmyhSK9maccIYMPKEaOa-7" value="Admin&lt;div&gt;&lt;br&gt;&lt;/div&gt;&lt;div&gt;PK&amp;nbsp; &amp;nbsp; &amp;nbsp; &lt;u&gt;user_id&lt;/u&gt;&amp;nbsp; &amp;nbsp; &amp;nbsp; &amp;nbsp; &amp;nbsp; &amp;nbsp; &amp;nbsp; &amp;nbsp;&lt;/div&gt;" style="shape=ext;margin=3;double=1;whiteSpace=wrap;html=1;align=center;" parent="1" vertex="1">
          <mxGeometry x="-4410" y="-798" width="150" height="80" as="geometry" />
        </mxCell>
        <mxCell id="zmyhSK9maccIYMPKEaOa-11" value="" style="endArrow=none;html=1;rounded=0;entryX=1;entryY=0.5;entryDx=0;entryDy=0;exitX=0;exitY=0.5;exitDx=0;exitDy=0;" parent="1" source="zmyhSK9maccIYMPKEaOa-7" target="zmyhSK9maccIYMPKEaOa-7" edge="1">
          <mxGeometry relative="1" as="geometry">
            <mxPoint x="-4400" y="-758" as="sourcePoint" />
            <mxPoint x="-4030" y="-719" as="targetPoint" />
            <Array as="points" />
          </mxGeometry>
        </mxCell>
        <mxCell id="zmyhSK9maccIYMPKEaOa-12" value="" style="endArrow=none;html=1;rounded=0;" parent="1" target="zmyhSK9maccIYMPKEaOa-7" edge="1">
          <mxGeometry relative="1" as="geometry">
            <mxPoint x="-4370" y="-758" as="sourcePoint" />
            <mxPoint x="-4250" y="-748" as="targetPoint" />
            <Array as="points">
              <mxPoint x="-4370" y="-718" />
            </Array>
          </mxGeometry>
        </mxCell>
        <mxCell id="zmyhSK9maccIYMPKEaOa-13" value="" style="shape=link;html=1;rounded=0;exitX=0.5;exitY=0;exitDx=0;exitDy=0;entryX=0;entryY=0.5;entryDx=0;entryDy=0;" parent="1" source="bjHw961es4BenDyh05qI-971" target="bjHw961es4BenDyh05qI-335" edge="1">
          <mxGeometry relative="1" as="geometry">
            <mxPoint x="-3945" y="-370" as="sourcePoint" />
            <mxPoint x="-3530" y="-415" as="targetPoint" />
            <Array as="points">
              <mxPoint x="-3955" y="-540" />
            </Array>
          </mxGeometry>
        </mxCell>
        <mxCell id="zmyhSK9maccIYMPKEaOa-21" value="" style="endArrow=none;html=1;rounded=0;exitX=0;exitY=0.5;exitDx=0;exitDy=0;entryX=1;entryY=0.5;entryDx=0;entryDy=0;" parent="1" source="bjHw961es4BenDyh05qI-1005" target="bjHw961es4BenDyh05qI-29" edge="1">
          <mxGeometry relative="1" as="geometry">
            <mxPoint x="-2865" y="-360" as="sourcePoint" />
            <mxPoint x="-2690" y="-360" as="targetPoint" />
          </mxGeometry>
        </mxCell>
        <mxCell id="UBI0qbENl6oGnIwgxFlF-9" style="edgeStyle=orthogonalEdgeStyle;rounded=0;orthogonalLoop=1;jettySize=auto;html=1;entryX=1;entryY=0.25;entryDx=0;entryDy=0;strokeColor=#FF0080;strokeWidth=5;" edge="1" parent="1" source="zmyhSK9maccIYMPKEaOa-26" target="UBI0qbENl6oGnIwgxFlF-4">
          <mxGeometry relative="1" as="geometry">
            <Array as="points">
              <mxPoint x="-2137" y="-730" />
              <mxPoint x="-2138" y="-500" />
            </Array>
          </mxGeometry>
        </mxCell>
        <mxCell id="zmyhSK9maccIYMPKEaOa-26" value="Rates" style="shape=rhombus;perimeter=rhombusPerimeter;whiteSpace=wrap;html=1;align=center;" parent="1" vertex="1">
          <mxGeometry x="-2240" y="-1020" width="205" height="60" as="geometry" />
        </mxCell>
        <mxCell id="zmyhSK9maccIYMPKEaOa-34" style="edgeStyle=orthogonalEdgeStyle;rounded=0;orthogonalLoop=1;jettySize=auto;html=1;entryX=0.998;entryY=0.137;entryDx=0;entryDy=0;entryPerimeter=0;strokeColor=#0000FF;strokeWidth=5;" parent="1" source="zmyhSK9maccIYMPKEaOa-26" edge="1" target="zmyhSK9maccIYMPKEaOa-101">
          <mxGeometry relative="1" as="geometry">
            <mxPoint x="-2499.23" y="-989.9" as="targetPoint" />
          </mxGeometry>
        </mxCell>
        <mxCell id="zmyhSK9maccIYMPKEaOa-36" value="" style="shape=ext;margin=3;double=1;whiteSpace=wrap;html=1;align=center;fillColor=none;" parent="1" vertex="1">
          <mxGeometry x="-3200" y="-770" width="320" height="300" as="geometry" />
        </mxCell>
        <mxCell id="zmyhSK9maccIYMPKEaOa-40" value="" style="shape=link;html=1;rounded=0;exitX=1.01;exitY=0.325;exitDx=0;exitDy=0;entryX=0;entryY=0.5;entryDx=0;entryDy=0;exitPerimeter=0;" parent="1" source="bjHw961es4BenDyh05qI-119" target="bjHw961es4BenDyh05qI-906" edge="1">
          <mxGeometry relative="1" as="geometry">
            <mxPoint x="-2640" y="-1" as="sourcePoint" />
            <mxPoint x="-2524.15" y="-0.7999999999999545" as="targetPoint" />
          </mxGeometry>
        </mxCell>
        <mxCell id="zmyhSK9maccIYMPKEaOa-42" value="" style="shape=link;html=1;rounded=0;entryX=0;entryY=0.5;entryDx=0;entryDy=0;exitX=0.856;exitY=1.081;exitDx=0;exitDy=0;exitPerimeter=0;" parent="1" source="bjHw961es4BenDyh05qI-152" target="bjHw961es4BenDyh05qI-936" edge="1">
          <mxGeometry relative="1" as="geometry">
            <mxPoint x="-2835.76" y="338.79999999999995" as="sourcePoint" />
            <mxPoint x="-2680" y="420" as="targetPoint" />
            <Array as="points">
              <mxPoint x="-2836" y="545" />
            </Array>
          </mxGeometry>
        </mxCell>
        <mxCell id="zmyhSK9maccIYMPKEaOa-44" value="" style="shape=link;html=1;rounded=0;entryX=0.5;entryY=0;entryDx=0;entryDy=0;exitX=0.396;exitY=0.98;exitDx=0;exitDy=0;exitPerimeter=0;" parent="1" source="bjHw961es4BenDyh05qI-152" target="bjHw961es4BenDyh05qI-958" edge="1">
          <mxGeometry relative="1" as="geometry">
            <mxPoint x="-3000" y="389.9999999999998" as="sourcePoint" />
            <mxPoint x="-3000" y="429.9999999999998" as="targetPoint" />
          </mxGeometry>
        </mxCell>
        <mxCell id="zmyhSK9maccIYMPKEaOa-46" value="" style="shape=link;html=1;rounded=0;entryX=0;entryY=0.5;entryDx=0;entryDy=0;exitX=1;exitY=0.5;exitDx=0;exitDy=0;" parent="1" source="bjHw961es4BenDyh05qI-140" target="bjHw961es4BenDyh05qI-982" edge="1">
          <mxGeometry relative="1" as="geometry">
            <mxPoint x="-2490" y="250" as="sourcePoint" />
            <mxPoint x="-2330" y="250" as="targetPoint" />
          </mxGeometry>
        </mxCell>
        <mxCell id="zmyhSK9maccIYMPKEaOa-48" value="" style="shape=link;html=1;rounded=0;exitX=1;exitY=0.5;exitDx=0;exitDy=0;entryX=0;entryY=0.5;entryDx=0;entryDy=0;" parent="1" target="bjHw961es4BenDyh05qI-990" edge="1">
          <mxGeometry relative="1" as="geometry">
            <mxPoint x="-2790" y="305" as="sourcePoint" />
            <mxPoint x="-2330" y="310" as="targetPoint" />
          </mxGeometry>
        </mxCell>
        <mxCell id="zmyhSK9maccIYMPKEaOa-51" value="" style="shape=link;html=1;rounded=0;exitX=1;exitY=0.5;exitDx=0;exitDy=0;entryX=0;entryY=0.5;entryDx=0;entryDy=0;" parent="1" source="bjHw961es4BenDyh05qI-945" target="bjHw961es4BenDyh05qI-134" edge="1">
          <mxGeometry relative="1" as="geometry">
            <mxPoint x="-4140" y="-140" as="sourcePoint" />
            <mxPoint x="-3980" y="-140" as="targetPoint" />
          </mxGeometry>
        </mxCell>
        <mxCell id="zmyhSK9maccIYMPKEaOa-53" value="" style="shape=link;html=1;rounded=0;entryX=-0.006;entryY=0.971;entryDx=0;entryDy=0;exitX=0.5;exitY=1;exitDx=0;exitDy=0;entryPerimeter=0;" parent="1" source="bjHw961es4BenDyh05qI-971" target="bjHw961es4BenDyh05qI-125" edge="1">
          <mxGeometry relative="1" as="geometry">
            <mxPoint x="-3560" y="-90" as="sourcePoint" />
            <mxPoint x="-3400" y="-90" as="targetPoint" />
            <Array as="points">
              <mxPoint x="-3955" y="40" />
            </Array>
          </mxGeometry>
        </mxCell>
        <mxCell id="zmyhSK9maccIYMPKEaOa-58" value="" style="endArrow=none;html=1;rounded=0;exitX=1;exitY=0.5;exitDx=0;exitDy=0;entryX=0;entryY=0.5;entryDx=0;entryDy=0;" parent="1" source="bjHw961es4BenDyh05qI-894" target="bjHw961es4BenDyh05qI-152" edge="1">
          <mxGeometry relative="1" as="geometry">
            <mxPoint x="-3510" y="300" as="sourcePoint" />
            <mxPoint x="-3350" y="300" as="targetPoint" />
          </mxGeometry>
        </mxCell>
        <mxCell id="zmyhSK9maccIYMPKEaOa-59" value="1..1" style="resizable=0;html=1;whiteSpace=wrap;align=right;verticalAlign=bottom;" parent="zmyhSK9maccIYMPKEaOa-58" connectable="0" vertex="1">
          <mxGeometry x="1" relative="1" as="geometry">
            <mxPoint x="-420" as="offset" />
          </mxGeometry>
        </mxCell>
        <mxCell id="zmyhSK9maccIYMPKEaOa-61" value="" style="endArrow=none;html=1;rounded=0;exitX=0.5;exitY=1;exitDx=0;exitDy=0;entryX=0;entryY=0.5;entryDx=0;entryDy=0;" parent="1" source="bjHw961es4BenDyh05qI-955" target="bjHw961es4BenDyh05qI-289" edge="1">
          <mxGeometry relative="1" as="geometry">
            <mxPoint x="-3465" y="450" as="sourcePoint" />
            <mxPoint x="-3025" y="450" as="targetPoint" />
            <Array as="points">
              <mxPoint x="-3545" y="690" />
            </Array>
          </mxGeometry>
        </mxCell>
        <mxCell id="zmyhSK9maccIYMPKEaOa-62" value="1..1" style="resizable=0;html=1;whiteSpace=wrap;align=right;verticalAlign=bottom;" parent="zmyhSK9maccIYMPKEaOa-61" connectable="0" vertex="1">
          <mxGeometry x="1" relative="1" as="geometry">
            <mxPoint x="-430" y="-30" as="offset" />
          </mxGeometry>
        </mxCell>
        <mxCell id="zmyhSK9maccIYMPKEaOa-63" value="" style="endArrow=none;html=1;rounded=0;exitX=1;exitY=0.5;exitDx=0;exitDy=0;entryX=0;entryY=0.5;entryDx=0;entryDy=0;" parent="1" source="bjHw961es4BenDyh05qI-932" target="bjHw961es4BenDyh05qI-233" edge="1">
          <mxGeometry relative="1" as="geometry">
            <mxPoint x="-3540" y="779.86" as="sourcePoint" />
            <mxPoint x="-3100" y="779.86" as="targetPoint" />
          </mxGeometry>
        </mxCell>
        <mxCell id="zmyhSK9maccIYMPKEaOa-64" value="1..1" style="resizable=0;html=1;whiteSpace=wrap;align=right;verticalAlign=bottom;" parent="zmyhSK9maccIYMPKEaOa-63" connectable="0" vertex="1">
          <mxGeometry x="1" relative="1" as="geometry">
            <mxPoint x="-725" as="offset" />
          </mxGeometry>
        </mxCell>
        <mxCell id="zmyhSK9maccIYMPKEaOa-69" value="" style="endArrow=none;html=1;rounded=0;exitX=0.557;exitY=1.005;exitDx=0;exitDy=0;exitPerimeter=0;entryX=0.5;entryY=0;entryDx=0;entryDy=0;" parent="1" source="bjHw961es4BenDyh05qI-634" target="bjHw961es4BenDyh05qI-997" edge="1">
          <mxGeometry relative="1" as="geometry">
            <mxPoint x="-2410" y="-310" as="sourcePoint" />
            <mxPoint x="-2250" y="-310" as="targetPoint" />
            <Array as="points">
              <mxPoint x="-2600" y="-240" />
            </Array>
          </mxGeometry>
        </mxCell>
        <mxCell id="zmyhSK9maccIYMPKEaOa-70" value="1..1" style="resizable=0;html=1;whiteSpace=wrap;align=right;verticalAlign=bottom;" parent="zmyhSK9maccIYMPKEaOa-69" connectable="0" vertex="1">
          <mxGeometry x="1" relative="1" as="geometry" />
        </mxCell>
        <mxCell id="zmyhSK9maccIYMPKEaOa-75" value="" style="endArrow=none;html=1;rounded=0;exitX=1;exitY=0.5;exitDx=0;exitDy=0;entryX=0;entryY=0.5;entryDx=0;entryDy=0;" parent="1" source="bjHw961es4BenDyh05qI-964" target="zmyhSK9maccIYMPKEaOa-36" edge="1">
          <mxGeometry relative="1" as="geometry">
            <mxPoint x="-3410" y="-730" as="sourcePoint" />
            <mxPoint x="-3250" y="-730" as="targetPoint" />
          </mxGeometry>
        </mxCell>
        <mxCell id="zmyhSK9maccIYMPKEaOa-76" value="1..1" style="resizable=0;html=1;whiteSpace=wrap;align=right;verticalAlign=bottom;" parent="zmyhSK9maccIYMPKEaOa-75" connectable="0" vertex="1">
          <mxGeometry x="1" relative="1" as="geometry">
            <mxPoint x="-880" as="offset" />
          </mxGeometry>
        </mxCell>
        <mxCell id="zmyhSK9maccIYMPKEaOa-79" value="" style="endArrow=none;html=1;rounded=0;exitX=0;exitY=0.5;exitDx=0;exitDy=0;entryX=1;entryY=0.5;entryDx=0;entryDy=0;" parent="1" source="bjHw961es4BenDyh05qI-921" target="bjHw961es4BenDyh05qI-79" edge="1">
          <mxGeometry relative="1" as="geometry">
            <mxPoint x="-3540" y="305" as="sourcePoint" />
            <mxPoint x="-3100" y="305" as="targetPoint" />
          </mxGeometry>
        </mxCell>
        <mxCell id="zmyhSK9maccIYMPKEaOa-80" value="1..1" style="resizable=0;html=1;whiteSpace=wrap;align=right;verticalAlign=bottom;" parent="zmyhSK9maccIYMPKEaOa-79" connectable="0" vertex="1">
          <mxGeometry x="1" relative="1" as="geometry">
            <mxPoint x="71" y="-5" as="offset" />
          </mxGeometry>
        </mxCell>
        <mxCell id="zmyhSK9maccIYMPKEaOa-81" value="" style="endArrow=none;html=1;rounded=0;entryX=0.5;entryY=1;entryDx=0;entryDy=0;" parent="1" source="bjHw961es4BenDyh05qI-35" target="bjHw961es4BenDyh05qI-926" edge="1">
          <mxGeometry relative="1" as="geometry">
            <mxPoint x="-4020" y="305" as="sourcePoint" />
            <mxPoint x="-4090" y="305" as="targetPoint" />
          </mxGeometry>
        </mxCell>
        <mxCell id="zmyhSK9maccIYMPKEaOa-82" value="1..1" style="resizable=0;html=1;whiteSpace=wrap;align=right;verticalAlign=bottom;" parent="zmyhSK9maccIYMPKEaOa-81" connectable="0" vertex="1">
          <mxGeometry x="1" relative="1" as="geometry">
            <mxPoint x="30" y="20" as="offset" />
          </mxGeometry>
        </mxCell>
        <mxCell id="zmyhSK9maccIYMPKEaOa-85" value="0..*" style="resizable=0;html=1;whiteSpace=wrap;align=right;verticalAlign=bottom;" parent="1" connectable="0" vertex="1">
          <mxGeometry x="-3864.9966666666664" y="130" as="geometry">
            <mxPoint x="119" y="-161" as="offset" />
          </mxGeometry>
        </mxCell>
        <mxCell id="zmyhSK9maccIYMPKEaOa-86" value="" style="endArrow=none;html=1;rounded=0;entryX=1;entryY=0.5;entryDx=0;entryDy=0;exitX=-0.004;exitY=0.632;exitDx=0;exitDy=0;exitPerimeter=0;" parent="1" edge="1">
          <mxGeometry relative="1" as="geometry">
            <mxPoint x="-3110" y="-0.9999999999999636" as="sourcePoint" />
            <mxPoint x="-3723.72" y="0.04" as="targetPoint" />
          </mxGeometry>
        </mxCell>
        <mxCell id="zmyhSK9maccIYMPKEaOa-87" value="1..1" style="resizable=0;html=1;whiteSpace=wrap;align=right;verticalAlign=bottom;" parent="zmyhSK9maccIYMPKEaOa-86" connectable="0" vertex="1">
          <mxGeometry x="1" relative="1" as="geometry">
            <mxPoint x="14" as="offset" />
          </mxGeometry>
        </mxCell>
        <mxCell id="zmyhSK9maccIYMPKEaOa-91" value="0..*" style="resizable=0;html=1;whiteSpace=wrap;align=right;verticalAlign=bottom;" parent="1" connectable="0" vertex="1">
          <mxGeometry x="-3729.9966666666664" y="-280" as="geometry">
            <mxPoint x="119" y="-161" as="offset" />
          </mxGeometry>
        </mxCell>
        <mxCell id="zmyhSK9maccIYMPKEaOa-93" value="" style="shape=link;html=1;rounded=0;exitX=1;exitY=0.5;exitDx=0;exitDy=0;entryX=-0.001;entryY=0.931;entryDx=0;entryDy=0;entryPerimeter=0;" parent="1" source="bjHw961es4BenDyh05qI-976" target="zmyhSK9maccIYMPKEaOa-36" edge="1">
          <mxGeometry relative="1" as="geometry">
            <mxPoint x="-3530" y="-490" as="sourcePoint" />
            <mxPoint x="-3370" y="-490" as="targetPoint" />
          </mxGeometry>
        </mxCell>
        <mxCell id="zmyhSK9maccIYMPKEaOa-101" value="" style="rounded=0;whiteSpace=wrap;html=1;fillColor=none;strokeColor=#0000FF;strokeWidth=6;" parent="1" vertex="1">
          <mxGeometry x="-3260" y="-1080" width="770" height="650" as="geometry" />
        </mxCell>
        <mxCell id="UBI0qbENl6oGnIwgxFlF-1" value="portions&lt;div&gt;calories&lt;/div&gt;" style="whiteSpace=wrap;html=1;align=center;" vertex="1" parent="1">
          <mxGeometry x="-3840" y="180" width="100" height="40" as="geometry" />
        </mxCell>
        <mxCell id="UBI0qbENl6oGnIwgxFlF-2" value="" style="endArrow=none;html=1;rounded=0;dashed=1;dashPattern=1 2;exitX=0.5;exitY=1;exitDx=0;exitDy=0;entryX=0.5;entryY=0;entryDx=0;entryDy=0;" edge="1" parent="1" source="bjHw961es4BenDyh05qI-945" target="UBI0qbENl6oGnIwgxFlF-1">
          <mxGeometry relative="1" as="geometry">
            <mxPoint x="-3890" y="90" as="sourcePoint" />
            <mxPoint x="-3730" y="90" as="targetPoint" />
          </mxGeometry>
        </mxCell>
        <mxCell id="UBI0qbENl6oGnIwgxFlF-4" value="" style="rounded=0;whiteSpace=wrap;html=1;fillColor=none;strokeColor=#FF0080;strokeWidth=6;" vertex="1" parent="1">
          <mxGeometry x="-3520" y="-800" width="1070" height="1200" as="geometry" />
        </mxCell>
        <mxCell id="UBI0qbENl6oGnIwgxFlF-5" value="rating" style="whiteSpace=wrap;html=1;align=center;" vertex="1" parent="1">
          <mxGeometry x="-1940" y="-1010" width="100" height="40" as="geometry" />
        </mxCell>
        <mxCell id="UBI0qbENl6oGnIwgxFlF-6" value="" style="endArrow=none;html=1;rounded=0;dashed=1;dashPattern=1 2;exitX=1;exitY=0.5;exitDx=0;exitDy=0;entryX=0;entryY=0.5;entryDx=0;entryDy=0;" edge="1" parent="1" source="zmyhSK9maccIYMPKEaOa-26" target="UBI0qbENl6oGnIwgxFlF-5">
          <mxGeometry relative="1" as="geometry">
            <mxPoint x="-2430" y="-850" as="sourcePoint" />
            <mxPoint x="-2270" y="-850" as="targetPoint" />
          </mxGeometry>
        </mxCell>
      </root>
    </mxGraphModel>
  </diagram>
</mxfile>
